<svg width="590" height="72" viewBox="0 0 590 72" fill="none" xmlns="http://www.w3.org/2000/svg">
<path d="M0 16C0 7.16344 7.16344 0 16 0V72C7.16344 72 0 64.8366 0 56V16Z" fill="#E3B9BA"/>
<path d="M37.5234 15.625V27H36.0391V15.625H37.5234ZM41.1797 15.625V16.8594H32.3906V15.625H41.1797ZM43.5 19.875V27H42.0547V18.5469H43.4609L43.5 19.875ZM46.1406 18.5L46.1328 19.8438C46.013 19.8177 45.8984 19.8021 45.7891 19.7969C45.6849 19.7865 45.5651 19.7812 45.4297 19.7812C45.0964 19.7812 44.8021 19.8333 44.5469 19.9375C44.2917 20.0417 44.0755 20.1875 43.8984 20.375C43.7214 20.5625 43.5807 20.7865 43.4766 21.0469C43.3776 21.3021 43.3125 21.5833 43.2812 21.8906L42.875 22.125C42.875 21.6146 42.9245 21.1354 43.0234 20.6875C43.1276 20.2396 43.2865 19.8438 43.5 19.5C43.7135 19.151 43.9844 18.8802 44.3125 18.6875C44.6458 18.4896 45.0417 18.3906 45.5 18.3906C45.6042 18.3906 45.724 18.4036 45.8594 18.4297C45.9948 18.4505 46.0885 18.474 46.1406 18.5ZM52.6484 25.0469V18.5469H54.1016V27H52.7188L52.6484 25.0469ZM52.9219 23.2656L53.5234 23.25C53.5234 23.8125 53.4635 24.3333 53.3438 24.8125C53.2292 25.2865 53.0417 25.6979 52.7812 26.0469C52.5208 26.3958 52.1797 26.6693 51.7578 26.8672C51.3359 27.0599 50.8229 27.1562 50.2188 27.1562C49.8073 27.1562 49.4297 27.0964 49.0859 26.9766C48.7474 26.8568 48.4557 26.6719 48.2109 26.4219C47.9661 26.1719 47.776 25.8464 47.6406 25.4453C47.5104 25.0443 47.4453 24.5625 47.4453 24V18.5469H48.8906V24.0156C48.8906 24.3958 48.9323 24.7109 49.0156 24.9609C49.1042 25.2057 49.2214 25.401 49.3672 25.5469C49.5182 25.6875 49.6849 25.7865 49.8672 25.8438C50.0547 25.901 50.2474 25.9297 50.4453 25.9297C51.0599 25.9297 51.5469 25.8125 51.9062 25.5781C52.2656 25.3385 52.5234 25.0182 52.6797 24.6172C52.8411 24.2109 52.9219 23.7604 52.9219 23.2656ZM61.2266 24.7578C61.2266 24.5495 61.1797 24.3568 61.0859 24.1797C60.9974 23.9974 60.8125 23.8333 60.5312 23.6875C60.2552 23.5365 59.8385 23.4062 59.2812 23.2969C58.8125 23.1979 58.388 23.0807 58.0078 22.9453C57.6328 22.8099 57.3125 22.6458 57.0469 22.4531C56.7865 22.2604 56.5859 22.0339 56.4453 21.7734C56.3047 21.513 56.2344 21.2083 56.2344 20.8594C56.2344 20.526 56.3073 20.2109 56.4531 19.9141C56.6042 19.6172 56.8151 19.3542 57.0859 19.125C57.362 18.8958 57.6927 18.7161 58.0781 18.5859C58.4635 18.4557 58.8932 18.3906 59.3672 18.3906C60.0443 18.3906 60.6224 18.5104 61.1016 18.75C61.5807 18.9896 61.9479 19.3099 62.2031 19.7109C62.4583 20.1068 62.5859 20.5469 62.5859 21.0312H61.1406C61.1406 20.7969 61.0703 20.5703 60.9297 20.3516C60.7943 20.1276 60.5938 19.9427 60.3281 19.7969C60.0677 19.651 59.7474 19.5781 59.3672 19.5781C58.9661 19.5781 58.6406 19.6406 58.3906 19.7656C58.1458 19.8854 57.9661 20.0391 57.8516 20.2266C57.7422 20.4141 57.6875 20.612 57.6875 20.8203C57.6875 20.9766 57.7135 21.1172 57.7656 21.2422C57.8229 21.362 57.9219 21.474 58.0625 21.5781C58.2031 21.6771 58.401 21.7708 58.6562 21.8594C58.9115 21.9479 59.237 22.0365 59.6328 22.125C60.3255 22.2812 60.8958 22.4688 61.3438 22.6875C61.7917 22.9062 62.125 23.1745 62.3438 23.4922C62.5625 23.8099 62.6719 24.1953 62.6719 24.6484C62.6719 25.0182 62.5938 25.3568 62.4375 25.6641C62.2865 25.9714 62.0651 26.237 61.7734 26.4609C61.487 26.6797 61.1432 26.8516 60.7422 26.9766C60.3464 27.0964 59.901 27.1562 59.4062 27.1562C58.6615 27.1562 58.0312 27.0234 57.5156 26.7578C57 26.4922 56.6094 26.1484 56.3438 25.7266C56.0781 25.3047 55.9453 24.8594 55.9453 24.3906H57.3984C57.4193 24.7865 57.5339 25.1016 57.7422 25.3359C57.9505 25.5651 58.2057 25.7292 58.5078 25.8281C58.8099 25.9219 59.1094 25.9688 59.4062 25.9688C59.8021 25.9688 60.1328 25.9167 60.3984 25.8125C60.6693 25.7083 60.875 25.5651 61.0156 25.3828C61.1562 25.2005 61.2266 24.9922 61.2266 24.7578ZM68.1094 18.5469V19.6562H63.5391V18.5469H68.1094ZM65.0859 16.4922H66.5312V24.9062C66.5312 25.1927 66.5755 25.4089 66.6641 25.5547C66.7526 25.7005 66.8672 25.7969 67.0078 25.8438C67.1484 25.8906 67.2995 25.9141 67.4609 25.9141C67.5807 25.9141 67.7057 25.9036 67.8359 25.8828C67.9714 25.8568 68.0729 25.8359 68.1406 25.8203L68.1484 27C68.0339 27.0365 67.8828 27.0703 67.6953 27.1016C67.513 27.138 67.2917 27.1562 67.0312 27.1562C66.6771 27.1562 66.3516 27.0859 66.0547 26.9453C65.7578 26.8047 65.5208 26.5703 65.3438 26.2422C65.1719 25.9089 65.0859 25.4609 65.0859 24.8984V16.4922ZM73.3125 27.1562C72.724 27.1562 72.1901 27.0573 71.7109 26.8594C71.237 26.6562 70.8281 26.3724 70.4844 26.0078C70.1458 25.6432 69.8854 25.2109 69.7031 24.7109C69.5208 24.2109 69.4297 23.6641 69.4297 23.0703V22.7422C69.4297 22.0547 69.5312 21.4427 69.7344 20.9062C69.9375 20.3646 70.2135 19.9062 70.5625 19.5312C70.9115 19.1562 71.3073 18.8724 71.75 18.6797C72.1927 18.487 72.651 18.3906 73.125 18.3906C73.7292 18.3906 74.25 18.4948 74.6875 18.7031C75.1302 18.9115 75.4922 19.2031 75.7734 19.5781C76.0547 19.9479 76.263 20.3854 76.3984 20.8906C76.5339 21.3906 76.6016 21.9375 76.6016 22.5312V23.1797H70.2891V22H75.1562V21.8906C75.1354 21.5156 75.0573 21.151 74.9219 20.7969C74.7917 20.4427 74.5833 20.151 74.2969 19.9219C74.0104 19.6927 73.6198 19.5781 73.125 19.5781C72.7969 19.5781 72.4948 19.6484 72.2188 19.7891C71.9427 19.9245 71.7057 20.1276 71.5078 20.3984C71.3099 20.6693 71.1562 21 71.0469 21.3906C70.9375 21.7812 70.8828 22.2318 70.8828 22.7422V23.0703C70.8828 23.4714 70.9375 23.849 71.0469 24.2031C71.1615 24.5521 71.3255 24.8594 71.5391 25.125C71.7578 25.3906 72.0208 25.599 72.3281 25.75C72.6406 25.901 72.9948 25.9766 73.3906 25.9766C73.901 25.9766 74.3333 25.8724 74.6875 25.6641C75.0417 25.4557 75.3516 25.1771 75.6172 24.8281L76.4922 25.5234C76.3099 25.7995 76.0781 26.0625 75.7969 26.3125C75.5156 26.5625 75.1693 26.7656 74.7578 26.9219C74.3516 27.0781 73.8698 27.1562 73.3125 27.1562ZM83.6172 25.3594V15H85.0703V27H83.7422L83.6172 25.3594ZM77.9297 22.8672V22.7031C77.9297 22.0573 78.0078 21.4714 78.1641 20.9453C78.3255 20.4141 78.5521 19.9583 78.8438 19.5781C79.1406 19.1979 79.4922 18.9062 79.8984 18.7031C80.3099 18.4948 80.7682 18.3906 81.2734 18.3906C81.8047 18.3906 82.2682 18.4844 82.6641 18.6719C83.0651 18.8542 83.4036 19.1224 83.6797 19.4766C83.9609 19.8255 84.1823 20.2474 84.3438 20.7422C84.5052 21.237 84.6172 21.7969 84.6797 22.4219V23.1406C84.6224 23.7604 84.5104 24.3177 84.3438 24.8125C84.1823 25.3073 83.9609 25.7292 83.6797 26.0781C83.4036 26.4271 83.0651 26.6953 82.6641 26.8828C82.263 27.0651 81.7943 27.1562 81.2578 27.1562C80.763 27.1562 80.3099 27.0495 79.8984 26.8359C79.4922 26.6224 79.1406 26.3229 78.8438 25.9375C78.5521 25.5521 78.3255 25.099 78.1641 24.5781C78.0078 24.0521 77.9297 23.4818 77.9297 22.8672ZM79.3828 22.7031V22.8672C79.3828 23.2891 79.4245 23.6849 79.5078 24.0547C79.5964 24.4245 79.7318 24.75 79.9141 25.0312C80.0964 25.3125 80.3281 25.5339 80.6094 25.6953C80.8906 25.8516 81.2266 25.9297 81.6172 25.9297C82.0964 25.9297 82.4896 25.8281 82.7969 25.625C83.1094 25.4219 83.3594 25.1536 83.5469 24.8203C83.7344 24.487 83.8802 24.125 83.9844 23.7344V21.8516C83.9219 21.5651 83.8307 21.2891 83.7109 21.0234C83.5964 20.7526 83.4453 20.513 83.2578 20.3047C83.0755 20.0911 82.849 19.9219 82.5781 19.7969C82.3125 19.6719 81.9974 19.6094 81.6328 19.6094C81.237 19.6094 80.8958 19.6927 80.6094 19.8594C80.3281 20.0208 80.0964 20.2448 79.9141 20.5312C79.7318 20.8125 79.5964 21.1406 79.5078 21.5156C79.4245 21.8854 79.3828 22.2812 79.3828 22.7031ZM91.2812 15H92.7344V25.3594L92.6094 27H91.2812V15ZM98.4453 22.7031V22.8672C98.4453 23.4818 98.3724 24.0521 98.2266 24.5781C98.0807 25.099 97.8672 25.5521 97.5859 25.9375C97.3047 26.3229 96.9609 26.6224 96.5547 26.8359C96.1484 27.0495 95.6823 27.1562 95.1562 27.1562C94.6198 27.1562 94.1484 27.0651 93.7422 26.8828C93.3411 26.6953 93.0026 26.4271 92.7266 26.0781C92.4505 25.7292 92.2292 25.3073 92.0625 24.8125C91.901 24.3177 91.7891 23.7604 91.7266 23.1406V22.4219C91.7891 21.7969 91.901 21.237 92.0625 20.7422C92.2292 20.2474 92.4505 19.8255 92.7266 19.4766C93.0026 19.1224 93.3411 18.8542 93.7422 18.6719C94.1432 18.4844 94.6094 18.3906 95.1406 18.3906C95.6719 18.3906 96.1432 18.4948 96.5547 18.7031C96.9661 18.9062 97.3099 19.1979 97.5859 19.5781C97.8672 19.9583 98.0807 20.4141 98.2266 20.9453C98.3724 21.4714 98.4453 22.0573 98.4453 22.7031ZM96.9922 22.8672V22.7031C96.9922 22.2812 96.9531 21.8854 96.875 21.5156C96.7969 21.1406 96.6719 20.8125 96.5 20.5312C96.3281 20.2448 96.1016 20.0208 95.8203 19.8594C95.5391 19.6927 95.1927 19.6094 94.7812 19.6094C94.4167 19.6094 94.099 19.6719 93.8281 19.7969C93.5625 19.9219 93.3359 20.0911 93.1484 20.3047C92.9609 20.513 92.8073 20.7526 92.6875 21.0234C92.5729 21.2891 92.487 21.5651 92.4297 21.8516V23.7344C92.513 24.099 92.6484 24.4505 92.8359 24.7891C93.0286 25.1224 93.2839 25.3958 93.6016 25.6094C93.9245 25.8229 94.3229 25.9297 94.7969 25.9297C95.1875 25.9297 95.5208 25.8516 95.7969 25.6953C96.0781 25.5339 96.3047 25.3125 96.4766 25.0312C96.6536 24.75 96.7839 24.4245 96.8672 24.0547C96.9505 23.6849 96.9922 23.2891 96.9922 22.8672ZM102.555 26.125L104.906 18.5469H106.453L103.062 28.3047C102.984 28.513 102.88 28.737 102.75 28.9766C102.625 29.2214 102.464 29.4531 102.266 29.6719C102.068 29.8906 101.828 30.0677 101.547 30.2031C101.271 30.3438 100.94 30.4141 100.555 30.4141C100.44 30.4141 100.294 30.3984 100.117 30.3672C99.9401 30.3359 99.8151 30.3099 99.7422 30.2891L99.7344 29.1172C99.776 29.1224 99.8411 29.1276 99.9297 29.1328C100.023 29.1432 100.089 29.1484 100.125 29.1484C100.453 29.1484 100.732 29.1042 100.961 29.0156C101.19 28.9323 101.383 28.7891 101.539 28.5859C101.701 28.388 101.839 28.1146 101.953 27.7656L102.555 26.125ZM100.828 18.5469L103.023 25.1094L103.398 26.6328L102.359 27.1641L99.25 18.5469H100.828ZM111.719 15H113.172V25.3594L113.047 27H111.719V15ZM118.883 22.7031V22.8672C118.883 23.4818 118.81 24.0521 118.664 24.5781C118.518 25.099 118.305 25.5521 118.023 25.9375C117.742 26.3229 117.398 26.6224 116.992 26.8359C116.586 27.0495 116.12 27.1562 115.594 27.1562C115.057 27.1562 114.586 27.0651 114.18 26.8828C113.779 26.6953 113.44 26.4271 113.164 26.0781C112.888 25.7292 112.667 25.3073 112.5 24.8125C112.339 24.3177 112.227 23.7604 112.164 23.1406V22.4219C112.227 21.7969 112.339 21.237 112.5 20.7422C112.667 20.2474 112.888 19.8255 113.164 19.4766C113.44 19.1224 113.779 18.8542 114.18 18.6719C114.581 18.4844 115.047 18.3906 115.578 18.3906C116.109 18.3906 116.581 18.4948 116.992 18.7031C117.404 18.9062 117.747 19.1979 118.023 19.5781C118.305 19.9583 118.518 20.4141 118.664 20.9453C118.81 21.4714 118.883 22.0573 118.883 22.7031ZM117.43 22.8672V22.7031C117.43 22.2812 117.391 21.8854 117.312 21.5156C117.234 21.1406 117.109 20.8125 116.938 20.5312C116.766 20.2448 116.539 20.0208 116.258 19.8594C115.977 19.6927 115.63 19.6094 115.219 19.6094C114.854 19.6094 114.536 19.6719 114.266 19.7969C114 19.9219 113.773 20.0911 113.586 20.3047C113.398 20.513 113.245 20.7526 113.125 21.0234C113.01 21.2891 112.924 21.5651 112.867 21.8516V23.7344C112.951 24.099 113.086 24.4505 113.273 24.7891C113.466 25.1224 113.721 25.3958 114.039 25.6094C114.362 25.8229 114.76 25.9297 115.234 25.9297C115.625 25.9297 115.958 25.8516 116.234 25.6953C116.516 25.5339 116.742 25.3125 116.914 25.0312C117.091 24.75 117.221 24.4245 117.305 24.0547C117.388 23.6849 117.43 23.2891 117.43 22.8672ZM125.883 25.0469V18.5469H127.336V27H125.953L125.883 25.0469ZM126.156 23.2656L126.758 23.25C126.758 23.8125 126.698 24.3333 126.578 24.8125C126.464 25.2865 126.276 25.6979 126.016 26.0469C125.755 26.3958 125.414 26.6693 124.992 26.8672C124.57 27.0599 124.057 27.1562 123.453 27.1562C123.042 27.1562 122.664 27.0964 122.32 26.9766C121.982 26.8568 121.69 26.6719 121.445 26.4219C121.201 26.1719 121.01 25.8464 120.875 25.4453C120.745 25.0443 120.68 24.5625 120.68 24V18.5469H122.125V24.0156C122.125 24.3958 122.167 24.7109 122.25 24.9609C122.339 25.2057 122.456 25.401 122.602 25.5469C122.753 25.6875 122.919 25.7865 123.102 25.8438C123.289 25.901 123.482 25.9297 123.68 25.9297C124.294 25.9297 124.781 25.8125 125.141 25.5781C125.5 25.3385 125.758 25.0182 125.914 24.6172C126.076 24.2109 126.156 23.7604 126.156 23.2656ZM134.461 24.7578C134.461 24.5495 134.414 24.3568 134.32 24.1797C134.232 23.9974 134.047 23.8333 133.766 23.6875C133.49 23.5365 133.073 23.4062 132.516 23.2969C132.047 23.1979 131.622 23.0807 131.242 22.9453C130.867 22.8099 130.547 22.6458 130.281 22.4531C130.021 22.2604 129.82 22.0339 129.68 21.7734C129.539 21.513 129.469 21.2083 129.469 20.8594C129.469 20.526 129.542 20.2109 129.688 19.9141C129.839 19.6172 130.049 19.3542 130.32 19.125C130.596 18.8958 130.927 18.7161 131.312 18.5859C131.698 18.4557 132.128 18.3906 132.602 18.3906C133.279 18.3906 133.857 18.5104 134.336 18.75C134.815 18.9896 135.182 19.3099 135.438 19.7109C135.693 20.1068 135.82 20.5469 135.82 21.0312H134.375C134.375 20.7969 134.305 20.5703 134.164 20.3516C134.029 20.1276 133.828 19.9427 133.562 19.7969C133.302 19.651 132.982 19.5781 132.602 19.5781C132.201 19.5781 131.875 19.6406 131.625 19.7656C131.38 19.8854 131.201 20.0391 131.086 20.2266C130.977 20.4141 130.922 20.612 130.922 20.8203C130.922 20.9766 130.948 21.1172 131 21.2422C131.057 21.362 131.156 21.474 131.297 21.5781C131.438 21.6771 131.635 21.7708 131.891 21.8594C132.146 21.9479 132.471 22.0365 132.867 22.125C133.56 22.2812 134.13 22.4688 134.578 22.6875C135.026 22.9062 135.359 23.1745 135.578 23.4922C135.797 23.8099 135.906 24.1953 135.906 24.6484C135.906 25.0182 135.828 25.3568 135.672 25.6641C135.521 25.9714 135.299 26.237 135.008 26.4609C134.721 26.6797 134.378 26.8516 133.977 26.9766C133.581 27.0964 133.135 27.1562 132.641 27.1562C131.896 27.1562 131.266 27.0234 130.75 26.7578C130.234 26.4922 129.844 26.1484 129.578 25.7266C129.312 25.3047 129.18 24.8594 129.18 24.3906H130.633C130.654 24.7865 130.768 25.1016 130.977 25.3359C131.185 25.5651 131.44 25.7292 131.742 25.8281C132.044 25.9219 132.344 25.9688 132.641 25.9688C133.036 25.9688 133.367 25.9167 133.633 25.8125C133.904 25.7083 134.109 25.5651 134.25 25.3828C134.391 25.2005 134.461 24.9922 134.461 24.7578ZM139.375 18.5469V27H137.922V18.5469H139.375ZM137.812 16.3047C137.812 16.0703 137.883 15.8724 138.023 15.7109C138.169 15.5495 138.383 15.4688 138.664 15.4688C138.94 15.4688 139.151 15.5495 139.297 15.7109C139.448 15.8724 139.523 16.0703 139.523 16.3047C139.523 16.5286 139.448 16.7214 139.297 16.8828C139.151 17.0391 138.94 17.1172 138.664 17.1172C138.383 17.1172 138.169 17.0391 138.023 16.8828C137.883 16.7214 137.812 16.5286 137.812 16.3047ZM143.141 20.3516V27H141.695V18.5469H143.062L143.141 20.3516ZM142.797 22.4531L142.195 22.4297C142.201 21.8516 142.286 21.3177 142.453 20.8281C142.62 20.3333 142.854 19.9036 143.156 19.5391C143.458 19.1745 143.818 18.8932 144.234 18.6953C144.656 18.4922 145.122 18.3906 145.633 18.3906C146.049 18.3906 146.424 18.4479 146.758 18.5625C147.091 18.6719 147.375 18.849 147.609 19.0938C147.849 19.3385 148.031 19.6562 148.156 20.0469C148.281 20.4323 148.344 20.9036 148.344 21.4609V27H146.891V21.4453C146.891 21.0026 146.826 20.6484 146.695 20.3828C146.565 20.112 146.375 19.9167 146.125 19.7969C145.875 19.6719 145.568 19.6094 145.203 19.6094C144.844 19.6094 144.516 19.6849 144.219 19.8359C143.927 19.987 143.674 20.1953 143.461 20.4609C143.253 20.7266 143.089 21.0312 142.969 21.375C142.854 21.7135 142.797 22.0729 142.797 22.4531ZM154.047 27.1562C153.458 27.1562 152.924 27.0573 152.445 26.8594C151.971 26.6562 151.562 26.3724 151.219 26.0078C150.88 25.6432 150.62 25.2109 150.438 24.7109C150.255 24.2109 150.164 23.6641 150.164 23.0703V22.7422C150.164 22.0547 150.266 21.4427 150.469 20.9062C150.672 20.3646 150.948 19.9062 151.297 19.5312C151.646 19.1562 152.042 18.8724 152.484 18.6797C152.927 18.487 153.385 18.3906 153.859 18.3906C154.464 18.3906 154.984 18.4948 155.422 18.7031C155.865 18.9115 156.227 19.2031 156.508 19.5781C156.789 19.9479 156.997 20.3854 157.133 20.8906C157.268 21.3906 157.336 21.9375 157.336 22.5312V23.1797H151.023V22H155.891V21.8906C155.87 21.5156 155.792 21.151 155.656 20.7969C155.526 20.4427 155.318 20.151 155.031 19.9219C154.745 19.6927 154.354 19.5781 153.859 19.5781C153.531 19.5781 153.229 19.6484 152.953 19.7891C152.677 19.9245 152.44 20.1276 152.242 20.3984C152.044 20.6693 151.891 21 151.781 21.3906C151.672 21.7812 151.617 22.2318 151.617 22.7422V23.0703C151.617 23.4714 151.672 23.849 151.781 24.2031C151.896 24.5521 152.06 24.8594 152.273 25.125C152.492 25.3906 152.755 25.599 153.062 25.75C153.375 25.901 153.729 25.9766 154.125 25.9766C154.635 25.9766 155.068 25.8724 155.422 25.6641C155.776 25.4557 156.086 25.1771 156.352 24.8281L157.227 25.5234C157.044 25.7995 156.812 26.0625 156.531 26.3125C156.25 26.5625 155.904 26.7656 155.492 26.9219C155.086 27.0781 154.604 27.1562 154.047 27.1562ZM163.945 24.7578C163.945 24.5495 163.898 24.3568 163.805 24.1797C163.716 23.9974 163.531 23.8333 163.25 23.6875C162.974 23.5365 162.557 23.4062 162 23.2969C161.531 23.1979 161.107 23.0807 160.727 22.9453C160.352 22.8099 160.031 22.6458 159.766 22.4531C159.505 22.2604 159.305 22.0339 159.164 21.7734C159.023 21.513 158.953 21.2083 158.953 20.8594C158.953 20.526 159.026 20.2109 159.172 19.9141C159.323 19.6172 159.534 19.3542 159.805 19.125C160.081 18.8958 160.411 18.7161 160.797 18.5859C161.182 18.4557 161.612 18.3906 162.086 18.3906C162.763 18.3906 163.341 18.5104 163.82 18.75C164.299 18.9896 164.667 19.3099 164.922 19.7109C165.177 20.1068 165.305 20.5469 165.305 21.0312H163.859C163.859 20.7969 163.789 20.5703 163.648 20.3516C163.513 20.1276 163.312 19.9427 163.047 19.7969C162.786 19.651 162.466 19.5781 162.086 19.5781C161.685 19.5781 161.359 19.6406 161.109 19.7656C160.865 19.8854 160.685 20.0391 160.57 20.2266C160.461 20.4141 160.406 20.612 160.406 20.8203C160.406 20.9766 160.432 21.1172 160.484 21.2422C160.542 21.362 160.641 21.474 160.781 21.5781C160.922 21.6771 161.12 21.7708 161.375 21.8594C161.63 21.9479 161.956 22.0365 162.352 22.125C163.044 22.2812 163.615 22.4688 164.062 22.6875C164.51 22.9062 164.844 23.1745 165.062 23.4922C165.281 23.8099 165.391 24.1953 165.391 24.6484C165.391 25.0182 165.312 25.3568 165.156 25.6641C165.005 25.9714 164.784 26.237 164.492 26.4609C164.206 26.6797 163.862 26.8516 163.461 26.9766C163.065 27.0964 162.62 27.1562 162.125 27.1562C161.38 27.1562 160.75 27.0234 160.234 26.7578C159.719 26.4922 159.328 26.1484 159.062 25.7266C158.797 25.3047 158.664 24.8594 158.664 24.3906H160.117C160.138 24.7865 160.253 25.1016 160.461 25.3359C160.669 25.5651 160.924 25.7292 161.227 25.8281C161.529 25.9219 161.828 25.9688 162.125 25.9688C162.521 25.9688 162.852 25.9167 163.117 25.8125C163.388 25.7083 163.594 25.5651 163.734 25.3828C163.875 25.2005 163.945 24.9922 163.945 24.7578ZM172.211 24.7578C172.211 24.5495 172.164 24.3568 172.07 24.1797C171.982 23.9974 171.797 23.8333 171.516 23.6875C171.24 23.5365 170.823 23.4062 170.266 23.2969C169.797 23.1979 169.372 23.0807 168.992 22.9453C168.617 22.8099 168.297 22.6458 168.031 22.4531C167.771 22.2604 167.57 22.0339 167.43 21.7734C167.289 21.513 167.219 21.2083 167.219 20.8594C167.219 20.526 167.292 20.2109 167.438 19.9141C167.589 19.6172 167.799 19.3542 168.07 19.125C168.346 18.8958 168.677 18.7161 169.062 18.5859C169.448 18.4557 169.878 18.3906 170.352 18.3906C171.029 18.3906 171.607 18.5104 172.086 18.75C172.565 18.9896 172.932 19.3099 173.188 19.7109C173.443 20.1068 173.57 20.5469 173.57 21.0312H172.125C172.125 20.7969 172.055 20.5703 171.914 20.3516C171.779 20.1276 171.578 19.9427 171.312 19.7969C171.052 19.651 170.732 19.5781 170.352 19.5781C169.951 19.5781 169.625 19.6406 169.375 19.7656C169.13 19.8854 168.951 20.0391 168.836 20.2266C168.727 20.4141 168.672 20.612 168.672 20.8203C168.672 20.9766 168.698 21.1172 168.75 21.2422C168.807 21.362 168.906 21.474 169.047 21.5781C169.188 21.6771 169.385 21.7708 169.641 21.8594C169.896 21.9479 170.221 22.0365 170.617 22.125C171.31 22.2812 171.88 22.4688 172.328 22.6875C172.776 22.9062 173.109 23.1745 173.328 23.4922C173.547 23.8099 173.656 24.1953 173.656 24.6484C173.656 25.0182 173.578 25.3568 173.422 25.6641C173.271 25.9714 173.049 26.237 172.758 26.4609C172.471 26.6797 172.128 26.8516 171.727 26.9766C171.331 27.0964 170.885 27.1562 170.391 27.1562C169.646 27.1562 169.016 27.0234 168.5 26.7578C167.984 26.4922 167.594 26.1484 167.328 25.7266C167.062 25.3047 166.93 24.8594 166.93 24.3906H168.383C168.404 24.7865 168.518 25.1016 168.727 25.3359C168.935 25.5651 169.19 25.7292 169.492 25.8281C169.794 25.9219 170.094 25.9688 170.391 25.9688C170.786 25.9688 171.117 25.9167 171.383 25.8125C171.654 25.7083 171.859 25.5651 172 25.3828C172.141 25.2005 172.211 24.9922 172.211 24.7578ZM179.062 27.1562C178.474 27.1562 177.94 27.0573 177.461 26.8594C176.987 26.6562 176.578 26.3724 176.234 26.0078C175.896 25.6432 175.635 25.2109 175.453 24.7109C175.271 24.2109 175.18 23.6641 175.18 23.0703V22.7422C175.18 22.0547 175.281 21.4427 175.484 20.9062C175.688 20.3646 175.964 19.9062 176.312 19.5312C176.661 19.1562 177.057 18.8724 177.5 18.6797C177.943 18.487 178.401 18.3906 178.875 18.3906C179.479 18.3906 180 18.4948 180.438 18.7031C180.88 18.9115 181.242 19.2031 181.523 19.5781C181.805 19.9479 182.013 20.3854 182.148 20.8906C182.284 21.3906 182.352 21.9375 182.352 22.5312V23.1797H176.039V22H180.906V21.8906C180.885 21.5156 180.807 21.151 180.672 20.7969C180.542 20.4427 180.333 20.151 180.047 19.9219C179.76 19.6927 179.37 19.5781 178.875 19.5781C178.547 19.5781 178.245 19.6484 177.969 19.7891C177.693 19.9245 177.456 20.1276 177.258 20.3984C177.06 20.6693 176.906 21 176.797 21.3906C176.688 21.7812 176.633 22.2318 176.633 22.7422V23.0703C176.633 23.4714 176.688 23.849 176.797 24.2031C176.911 24.5521 177.076 24.8594 177.289 25.125C177.508 25.3906 177.771 25.599 178.078 25.75C178.391 25.901 178.745 25.9766 179.141 25.9766C179.651 25.9766 180.083 25.8724 180.438 25.6641C180.792 25.4557 181.102 25.1771 181.367 24.8281L182.242 25.5234C182.06 25.7995 181.828 26.0625 181.547 26.3125C181.266 26.5625 180.919 26.7656 180.508 26.9219C180.102 27.0781 179.62 27.1562 179.062 27.1562ZM188.961 24.7578C188.961 24.5495 188.914 24.3568 188.82 24.1797C188.732 23.9974 188.547 23.8333 188.266 23.6875C187.99 23.5365 187.573 23.4062 187.016 23.2969C186.547 23.1979 186.122 23.0807 185.742 22.9453C185.367 22.8099 185.047 22.6458 184.781 22.4531C184.521 22.2604 184.32 22.0339 184.18 21.7734C184.039 21.513 183.969 21.2083 183.969 20.8594C183.969 20.526 184.042 20.2109 184.188 19.9141C184.339 19.6172 184.549 19.3542 184.82 19.125C185.096 18.8958 185.427 18.7161 185.812 18.5859C186.198 18.4557 186.628 18.3906 187.102 18.3906C187.779 18.3906 188.357 18.5104 188.836 18.75C189.315 18.9896 189.682 19.3099 189.938 19.7109C190.193 20.1068 190.32 20.5469 190.32 21.0312H188.875C188.875 20.7969 188.805 20.5703 188.664 20.3516C188.529 20.1276 188.328 19.9427 188.062 19.7969C187.802 19.651 187.482 19.5781 187.102 19.5781C186.701 19.5781 186.375 19.6406 186.125 19.7656C185.88 19.8854 185.701 20.0391 185.586 20.2266C185.477 20.4141 185.422 20.612 185.422 20.8203C185.422 20.9766 185.448 21.1172 185.5 21.2422C185.557 21.362 185.656 21.474 185.797 21.5781C185.938 21.6771 186.135 21.7708 186.391 21.8594C186.646 21.9479 186.971 22.0365 187.367 22.125C188.06 22.2812 188.63 22.4688 189.078 22.6875C189.526 22.9062 189.859 23.1745 190.078 23.4922C190.297 23.8099 190.406 24.1953 190.406 24.6484C190.406 25.0182 190.328 25.3568 190.172 25.6641C190.021 25.9714 189.799 26.237 189.508 26.4609C189.221 26.6797 188.878 26.8516 188.477 26.9766C188.081 27.0964 187.635 27.1562 187.141 27.1562C186.396 27.1562 185.766 27.0234 185.25 26.7578C184.734 26.4922 184.344 26.1484 184.078 25.7266C183.812 25.3047 183.68 24.8594 183.68 24.3906H185.133C185.154 24.7865 185.268 25.1016 185.477 25.3359C185.685 25.5651 185.94 25.7292 186.242 25.8281C186.544 25.9219 186.844 25.9688 187.141 25.9688C187.536 25.9688 187.867 25.9167 188.133 25.8125C188.404 25.7083 188.609 25.5651 188.75 25.3828C188.891 25.2005 188.961 24.9922 188.961 24.7578ZM201.258 25.5547V21.2031C201.258 20.8698 201.19 20.5807 201.055 20.3359C200.924 20.0859 200.727 19.8932 200.461 19.7578C200.195 19.6224 199.867 19.5547 199.477 19.5547C199.112 19.5547 198.792 19.6172 198.516 19.7422C198.245 19.8672 198.031 20.0312 197.875 20.2344C197.724 20.4375 197.648 20.6562 197.648 20.8906H196.203C196.203 20.5885 196.281 20.2891 196.438 19.9922C196.594 19.6953 196.818 19.4271 197.109 19.1875C197.406 18.9427 197.76 18.75 198.172 18.6094C198.589 18.4635 199.052 18.3906 199.562 18.3906C200.177 18.3906 200.719 18.4948 201.188 18.7031C201.661 18.9115 202.031 19.2266 202.297 19.6484C202.568 20.0651 202.703 20.5885 202.703 21.2188V25.1562C202.703 25.4375 202.727 25.737 202.773 26.0547C202.826 26.3724 202.901 26.6458 203 26.875V27H201.492C201.419 26.8333 201.362 26.612 201.32 26.3359C201.279 26.0547 201.258 25.7943 201.258 25.5547ZM201.508 21.875L201.523 22.8906H200.062C199.651 22.8906 199.284 22.9245 198.961 22.9922C198.638 23.0547 198.367 23.151 198.148 23.2812C197.93 23.4115 197.763 23.5755 197.648 23.7734C197.534 23.9661 197.477 24.1927 197.477 24.4531C197.477 24.7188 197.536 24.9609 197.656 25.1797C197.776 25.3984 197.956 25.5729 198.195 25.7031C198.44 25.8281 198.74 25.8906 199.094 25.8906C199.536 25.8906 199.927 25.7969 200.266 25.6094C200.604 25.4219 200.872 25.1927 201.07 24.9219C201.273 24.651 201.383 24.388 201.398 24.1328L202.016 24.8281C201.979 25.0469 201.88 25.2891 201.719 25.5547C201.557 25.8203 201.341 26.0755 201.07 26.3203C200.805 26.5599 200.487 26.7604 200.117 26.9219C199.753 27.0781 199.341 27.1562 198.883 27.1562C198.31 27.1562 197.807 27.0443 197.375 26.8203C196.948 26.5964 196.615 26.2969 196.375 25.9219C196.141 25.5417 196.023 25.1172 196.023 24.6484C196.023 24.1953 196.112 23.7969 196.289 23.4531C196.466 23.1042 196.721 22.8151 197.055 22.5859C197.388 22.3516 197.789 22.1745 198.258 22.0547C198.727 21.9349 199.25 21.875 199.828 21.875H201.508ZM208.359 25.9688C208.703 25.9688 209.021 25.8984 209.312 25.7578C209.604 25.6172 209.844 25.4245 210.031 25.1797C210.219 24.9297 210.326 24.6458 210.352 24.3281H211.727C211.701 24.8281 211.531 25.2943 211.219 25.7266C210.911 26.1536 210.508 26.5 210.008 26.7656C209.508 27.026 208.958 27.1562 208.359 27.1562C207.724 27.1562 207.169 27.0443 206.695 26.8203C206.227 26.5964 205.836 26.2891 205.523 25.8984C205.216 25.5078 204.984 25.0599 204.828 24.5547C204.677 24.0443 204.602 23.5052 204.602 22.9375V22.6094C204.602 22.0417 204.677 21.5052 204.828 21C204.984 20.4896 205.216 20.0391 205.523 19.6484C205.836 19.2578 206.227 18.9505 206.695 18.7266C207.169 18.5026 207.724 18.3906 208.359 18.3906C209.021 18.3906 209.599 18.526 210.094 18.7969C210.589 19.0625 210.977 19.4271 211.258 19.8906C211.544 20.349 211.701 20.8698 211.727 21.4531H210.352C210.326 21.1042 210.227 20.7891 210.055 20.5078C209.888 20.2266 209.659 20.0026 209.367 19.8359C209.081 19.6641 208.745 19.5781 208.359 19.5781C207.917 19.5781 207.544 19.6667 207.242 19.8438C206.945 20.0156 206.708 20.25 206.531 20.5469C206.359 20.8385 206.234 21.1641 206.156 21.5234C206.083 21.8776 206.047 22.2396 206.047 22.6094V22.9375C206.047 23.3073 206.083 23.6719 206.156 24.0312C206.229 24.3906 206.352 24.7161 206.523 25.0078C206.701 25.2995 206.938 25.5339 207.234 25.7109C207.536 25.8828 207.911 25.9688 208.359 25.9688ZM214.797 19.875V27H213.352V18.5469H214.758L214.797 19.875ZM217.438 18.5L217.43 19.8438C217.31 19.8177 217.195 19.8021 217.086 19.7969C216.982 19.7865 216.862 19.7812 216.727 19.7812C216.393 19.7812 216.099 19.8333 215.844 19.9375C215.589 20.0417 215.372 20.1875 215.195 20.375C215.018 20.5625 214.878 20.7865 214.773 21.0469C214.674 21.3021 214.609 21.5833 214.578 21.8906L214.172 22.125C214.172 21.6146 214.221 21.1354 214.32 20.6875C214.424 20.2396 214.583 19.8438 214.797 19.5C215.01 19.151 215.281 18.8802 215.609 18.6875C215.943 18.4896 216.339 18.3906 216.797 18.3906C216.901 18.3906 217.021 18.4036 217.156 18.4297C217.292 18.4505 217.385 18.474 217.438 18.5ZM218.234 22.8672V22.6875C218.234 22.0781 218.323 21.513 218.5 20.9922C218.677 20.4661 218.932 20.0104 219.266 19.625C219.599 19.2344 220.003 18.9323 220.477 18.7188C220.951 18.5 221.482 18.3906 222.07 18.3906C222.664 18.3906 223.198 18.5 223.672 18.7188C224.151 18.9323 224.557 19.2344 224.891 19.625C225.229 20.0104 225.487 20.4661 225.664 20.9922C225.841 21.513 225.93 22.0781 225.93 22.6875V22.8672C225.93 23.4766 225.841 24.0417 225.664 24.5625C225.487 25.0833 225.229 25.5391 224.891 25.9297C224.557 26.3151 224.154 26.6172 223.68 26.8359C223.211 27.0495 222.68 27.1562 222.086 27.1562C221.492 27.1562 220.958 27.0495 220.484 26.8359C220.01 26.6172 219.604 26.3151 219.266 25.9297C218.932 25.5391 218.677 25.0833 218.5 24.5625C218.323 24.0417 218.234 23.4766 218.234 22.8672ZM219.68 22.6875V22.8672C219.68 23.2891 219.729 23.6875 219.828 24.0625C219.927 24.4323 220.076 24.7604 220.273 25.0469C220.477 25.3333 220.729 25.5599 221.031 25.7266C221.333 25.888 221.685 25.9688 222.086 25.9688C222.482 25.9688 222.828 25.888 223.125 25.7266C223.427 25.5599 223.677 25.3333 223.875 25.0469C224.073 24.7604 224.221 24.4323 224.32 24.0625C224.424 23.6875 224.477 23.2891 224.477 22.8672V22.6875C224.477 22.2708 224.424 21.8776 224.32 21.5078C224.221 21.1328 224.07 20.8021 223.867 20.5156C223.669 20.224 223.419 19.9948 223.117 19.8281C222.82 19.6615 222.471 19.5781 222.07 19.5781C221.674 19.5781 221.326 19.6615 221.023 19.8281C220.727 19.9948 220.477 20.224 220.273 20.5156C220.076 20.8021 219.927 21.1328 219.828 21.5078C219.729 21.8776 219.68 22.2708 219.68 22.6875ZM232.664 24.7578C232.664 24.5495 232.617 24.3568 232.523 24.1797C232.435 23.9974 232.25 23.8333 231.969 23.6875C231.693 23.5365 231.276 23.4062 230.719 23.2969C230.25 23.1979 229.826 23.0807 229.445 22.9453C229.07 22.8099 228.75 22.6458 228.484 22.4531C228.224 22.2604 228.023 22.0339 227.883 21.7734C227.742 21.513 227.672 21.2083 227.672 20.8594C227.672 20.526 227.745 20.2109 227.891 19.9141C228.042 19.6172 228.253 19.3542 228.523 19.125C228.799 18.8958 229.13 18.7161 229.516 18.5859C229.901 18.4557 230.331 18.3906 230.805 18.3906C231.482 18.3906 232.06 18.5104 232.539 18.75C233.018 18.9896 233.385 19.3099 233.641 19.7109C233.896 20.1068 234.023 20.5469 234.023 21.0312H232.578C232.578 20.7969 232.508 20.5703 232.367 20.3516C232.232 20.1276 232.031 19.9427 231.766 19.7969C231.505 19.651 231.185 19.5781 230.805 19.5781C230.404 19.5781 230.078 19.6406 229.828 19.7656C229.583 19.8854 229.404 20.0391 229.289 20.2266C229.18 20.4141 229.125 20.612 229.125 20.8203C229.125 20.9766 229.151 21.1172 229.203 21.2422C229.26 21.362 229.359 21.474 229.5 21.5781C229.641 21.6771 229.839 21.7708 230.094 21.8594C230.349 21.9479 230.674 22.0365 231.07 22.125C231.763 22.2812 232.333 22.4688 232.781 22.6875C233.229 22.9062 233.562 23.1745 233.781 23.4922C234 23.8099 234.109 24.1953 234.109 24.6484C234.109 25.0182 234.031 25.3568 233.875 25.6641C233.724 25.9714 233.503 26.237 233.211 26.4609C232.924 26.6797 232.581 26.8516 232.18 26.9766C231.784 27.0964 231.339 27.1562 230.844 27.1562C230.099 27.1562 229.469 27.0234 228.953 26.7578C228.438 26.4922 228.047 26.1484 227.781 25.7266C227.516 25.3047 227.383 24.8594 227.383 24.3906H228.836C228.857 24.7865 228.971 25.1016 229.18 25.3359C229.388 25.5651 229.643 25.7292 229.945 25.8281C230.247 25.9219 230.547 25.9688 230.844 25.9688C231.24 25.9688 231.57 25.9167 231.836 25.8125C232.107 25.7083 232.312 25.5651 232.453 25.3828C232.594 25.2005 232.664 24.9922 232.664 24.7578ZM240.93 24.7578C240.93 24.5495 240.883 24.3568 240.789 24.1797C240.701 23.9974 240.516 23.8333 240.234 23.6875C239.958 23.5365 239.542 23.4062 238.984 23.2969C238.516 23.1979 238.091 23.0807 237.711 22.9453C237.336 22.8099 237.016 22.6458 236.75 22.4531C236.49 22.2604 236.289 22.0339 236.148 21.7734C236.008 21.513 235.938 21.2083 235.938 20.8594C235.938 20.526 236.01 20.2109 236.156 19.9141C236.307 19.6172 236.518 19.3542 236.789 19.125C237.065 18.8958 237.396 18.7161 237.781 18.5859C238.167 18.4557 238.596 18.3906 239.07 18.3906C239.747 18.3906 240.326 18.5104 240.805 18.75C241.284 18.9896 241.651 19.3099 241.906 19.7109C242.161 20.1068 242.289 20.5469 242.289 21.0312H240.844C240.844 20.7969 240.773 20.5703 240.633 20.3516C240.497 20.1276 240.297 19.9427 240.031 19.7969C239.771 19.651 239.451 19.5781 239.07 19.5781C238.669 19.5781 238.344 19.6406 238.094 19.7656C237.849 19.8854 237.669 20.0391 237.555 20.2266C237.445 20.4141 237.391 20.612 237.391 20.8203C237.391 20.9766 237.417 21.1172 237.469 21.2422C237.526 21.362 237.625 21.474 237.766 21.5781C237.906 21.6771 238.104 21.7708 238.359 21.8594C238.615 21.9479 238.94 22.0365 239.336 22.125C240.029 22.2812 240.599 22.4688 241.047 22.6875C241.495 22.9062 241.828 23.1745 242.047 23.4922C242.266 23.8099 242.375 24.1953 242.375 24.6484C242.375 25.0182 242.297 25.3568 242.141 25.6641C241.99 25.9714 241.768 26.237 241.477 26.4609C241.19 26.6797 240.846 26.8516 240.445 26.9766C240.049 27.0964 239.604 27.1562 239.109 27.1562C238.365 27.1562 237.734 27.0234 237.219 26.7578C236.703 26.4922 236.312 26.1484 236.047 25.7266C235.781 25.3047 235.648 24.8594 235.648 24.3906H237.102C237.122 24.7865 237.237 25.1016 237.445 25.3359C237.654 25.5651 237.909 25.7292 238.211 25.8281C238.513 25.9219 238.812 25.9688 239.109 25.9688C239.505 25.9688 239.836 25.9167 240.102 25.8125C240.372 25.7083 240.578 25.5651 240.719 25.3828C240.859 25.2005 240.93 24.9922 240.93 24.7578ZM255.328 23.3828H256.828C256.75 24.1016 256.544 24.7448 256.211 25.3125C255.878 25.8802 255.406 26.3307 254.797 26.6641C254.188 26.9922 253.427 27.1562 252.516 27.1562C251.849 27.1562 251.242 27.0312 250.695 26.7812C250.154 26.5312 249.688 26.1771 249.297 25.7188C248.906 25.2552 248.604 24.7005 248.391 24.0547C248.182 23.4036 248.078 22.6797 248.078 21.8828V20.75C248.078 19.9531 248.182 19.2318 248.391 18.5859C248.604 17.9349 248.909 17.3776 249.305 16.9141C249.706 16.4505 250.188 16.0938 250.75 15.8438C251.312 15.5938 251.945 15.4688 252.648 15.4688C253.508 15.4688 254.234 15.6302 254.828 15.9531C255.422 16.276 255.883 16.724 256.211 17.2969C256.544 17.8646 256.75 18.5234 256.828 19.2734H255.328C255.255 18.7422 255.12 18.2865 254.922 17.9062C254.724 17.5208 254.443 17.224 254.078 17.0156C253.714 16.8073 253.237 16.7031 252.648 16.7031C252.143 16.7031 251.698 16.7995 251.312 16.9922C250.932 17.1849 250.612 17.4583 250.352 17.8125C250.096 18.1667 249.904 18.5911 249.773 19.0859C249.643 19.5807 249.578 20.1302 249.578 20.7344V21.8828C249.578 22.4401 249.635 22.9635 249.75 23.4531C249.87 23.9427 250.049 24.3724 250.289 24.7422C250.529 25.112 250.833 25.4036 251.203 25.6172C251.573 25.8255 252.01 25.9297 252.516 25.9297C253.156 25.9297 253.667 25.8281 254.047 25.625C254.427 25.4219 254.714 25.1302 254.906 24.75C255.104 24.3698 255.245 23.9141 255.328 23.3828ZM263.648 25.5547V21.2031C263.648 20.8698 263.581 20.5807 263.445 20.3359C263.315 20.0859 263.117 19.8932 262.852 19.7578C262.586 19.6224 262.258 19.5547 261.867 19.5547C261.503 19.5547 261.182 19.6172 260.906 19.7422C260.635 19.8672 260.422 20.0312 260.266 20.2344C260.115 20.4375 260.039 20.6562 260.039 20.8906H258.594C258.594 20.5885 258.672 20.2891 258.828 19.9922C258.984 19.6953 259.208 19.4271 259.5 19.1875C259.797 18.9427 260.151 18.75 260.562 18.6094C260.979 18.4635 261.443 18.3906 261.953 18.3906C262.568 18.3906 263.109 18.4948 263.578 18.7031C264.052 18.9115 264.422 19.2266 264.688 19.6484C264.958 20.0651 265.094 20.5885 265.094 21.2188V25.1562C265.094 25.4375 265.117 25.737 265.164 26.0547C265.216 26.3724 265.292 26.6458 265.391 26.875V27H263.883C263.81 26.8333 263.753 26.612 263.711 26.3359C263.669 26.0547 263.648 25.7943 263.648 25.5547ZM263.898 21.875L263.914 22.8906H262.453C262.042 22.8906 261.674 22.9245 261.352 22.9922C261.029 23.0547 260.758 23.151 260.539 23.2812C260.32 23.4115 260.154 23.5755 260.039 23.7734C259.924 23.9661 259.867 24.1927 259.867 24.4531C259.867 24.7188 259.927 24.9609 260.047 25.1797C260.167 25.3984 260.346 25.5729 260.586 25.7031C260.831 25.8281 261.13 25.8906 261.484 25.8906C261.927 25.8906 262.318 25.7969 262.656 25.6094C262.995 25.4219 263.263 25.1927 263.461 24.9219C263.664 24.651 263.773 24.388 263.789 24.1328L264.406 24.8281C264.37 25.0469 264.271 25.2891 264.109 25.5547C263.948 25.8203 263.732 26.0755 263.461 26.3203C263.195 26.5599 262.878 26.7604 262.508 26.9219C262.143 27.0781 261.732 27.1562 261.273 27.1562C260.701 27.1562 260.198 27.0443 259.766 26.8203C259.339 26.5964 259.005 26.2969 258.766 25.9219C258.531 25.5417 258.414 25.1172 258.414 24.6484C258.414 24.1953 258.503 23.7969 258.68 23.4531C258.857 23.1042 259.112 22.8151 259.445 22.5859C259.779 22.3516 260.18 22.1745 260.648 22.0547C261.117 21.9349 261.641 21.875 262.219 21.875H263.898ZM268.812 20.3516V27H267.367V18.5469H268.734L268.812 20.3516ZM268.469 22.4531L267.867 22.4297C267.872 21.8516 267.958 21.3177 268.125 20.8281C268.292 20.3333 268.526 19.9036 268.828 19.5391C269.13 19.1745 269.49 18.8932 269.906 18.6953C270.328 18.4922 270.794 18.3906 271.305 18.3906C271.721 18.3906 272.096 18.4479 272.43 18.5625C272.763 18.6719 273.047 18.849 273.281 19.0938C273.521 19.3385 273.703 19.6562 273.828 20.0469C273.953 20.4323 274.016 20.9036 274.016 21.4609V27H272.562V21.4453C272.562 21.0026 272.497 20.6484 272.367 20.3828C272.237 20.112 272.047 19.9167 271.797 19.7969C271.547 19.6719 271.24 19.6094 270.875 19.6094C270.516 19.6094 270.188 19.6849 269.891 19.8359C269.599 19.987 269.346 20.1953 269.133 20.4609C268.924 20.7266 268.76 21.0312 268.641 21.375C268.526 21.7135 268.469 22.0729 268.469 22.4531ZM281.195 25.5547V21.2031C281.195 20.8698 281.128 20.5807 280.992 20.3359C280.862 20.0859 280.664 19.8932 280.398 19.7578C280.133 19.6224 279.805 19.5547 279.414 19.5547C279.049 19.5547 278.729 19.6172 278.453 19.7422C278.182 19.8672 277.969 20.0312 277.812 20.2344C277.661 20.4375 277.586 20.6562 277.586 20.8906H276.141C276.141 20.5885 276.219 20.2891 276.375 19.9922C276.531 19.6953 276.755 19.4271 277.047 19.1875C277.344 18.9427 277.698 18.75 278.109 18.6094C278.526 18.4635 278.99 18.3906 279.5 18.3906C280.115 18.3906 280.656 18.4948 281.125 18.7031C281.599 18.9115 281.969 19.2266 282.234 19.6484C282.505 20.0651 282.641 20.5885 282.641 21.2188V25.1562C282.641 25.4375 282.664 25.737 282.711 26.0547C282.763 26.3724 282.839 26.6458 282.938 26.875V27H281.43C281.357 26.8333 281.299 26.612 281.258 26.3359C281.216 26.0547 281.195 25.7943 281.195 25.5547ZM281.445 21.875L281.461 22.8906H280C279.589 22.8906 279.221 22.9245 278.898 22.9922C278.576 23.0547 278.305 23.151 278.086 23.2812C277.867 23.4115 277.701 23.5755 277.586 23.7734C277.471 23.9661 277.414 24.1927 277.414 24.4531C277.414 24.7188 277.474 24.9609 277.594 25.1797C277.714 25.3984 277.893 25.5729 278.133 25.7031C278.378 25.8281 278.677 25.8906 279.031 25.8906C279.474 25.8906 279.865 25.7969 280.203 25.6094C280.542 25.4219 280.81 25.1927 281.008 24.9219C281.211 24.651 281.32 24.388 281.336 24.1328L281.953 24.8281C281.917 25.0469 281.818 25.2891 281.656 25.5547C281.495 25.8203 281.279 26.0755 281.008 26.3203C280.742 26.5599 280.424 26.7604 280.055 26.9219C279.69 27.0781 279.279 27.1562 278.82 27.1562C278.247 27.1562 277.745 27.0443 277.312 26.8203C276.885 26.5964 276.552 26.2969 276.312 25.9219C276.078 25.5417 275.961 25.1172 275.961 24.6484C275.961 24.1953 276.049 23.7969 276.227 23.4531C276.404 23.1042 276.659 22.8151 276.992 22.5859C277.326 22.3516 277.727 22.1745 278.195 22.0547C278.664 21.9349 279.188 21.875 279.766 21.875H281.445ZM290.242 25.3594V15H291.695V27H290.367L290.242 25.3594ZM284.555 22.8672V22.7031C284.555 22.0573 284.633 21.4714 284.789 20.9453C284.951 20.4141 285.177 19.9583 285.469 19.5781C285.766 19.1979 286.117 18.9062 286.523 18.7031C286.935 18.4948 287.393 18.3906 287.898 18.3906C288.43 18.3906 288.893 18.4844 289.289 18.6719C289.69 18.8542 290.029 19.1224 290.305 19.4766C290.586 19.8255 290.807 20.2474 290.969 20.7422C291.13 21.237 291.242 21.7969 291.305 22.4219V23.1406C291.247 23.7604 291.135 24.3177 290.969 24.8125C290.807 25.3073 290.586 25.7292 290.305 26.0781C290.029 26.4271 289.69 26.6953 289.289 26.8828C288.888 27.0651 288.419 27.1562 287.883 27.1562C287.388 27.1562 286.935 27.0495 286.523 26.8359C286.117 26.6224 285.766 26.3229 285.469 25.9375C285.177 25.5521 284.951 25.099 284.789 24.5781C284.633 24.0521 284.555 23.4818 284.555 22.8672ZM286.008 22.7031V22.8672C286.008 23.2891 286.049 23.6849 286.133 24.0547C286.221 24.4245 286.357 24.75 286.539 25.0312C286.721 25.3125 286.953 25.5339 287.234 25.6953C287.516 25.8516 287.852 25.9297 288.242 25.9297C288.721 25.9297 289.115 25.8281 289.422 25.625C289.734 25.4219 289.984 25.1536 290.172 24.8203C290.359 24.487 290.505 24.125 290.609 23.7344V21.8516C290.547 21.5651 290.456 21.2891 290.336 21.0234C290.221 20.7526 290.07 20.513 289.883 20.3047C289.701 20.0911 289.474 19.9219 289.203 19.7969C288.938 19.6719 288.622 19.6094 288.258 19.6094C287.862 19.6094 287.521 19.6927 287.234 19.8594C286.953 20.0208 286.721 20.2448 286.539 20.5312C286.357 20.8125 286.221 21.1406 286.133 21.5156C286.049 21.8854 286.008 22.2812 286.008 22.7031ZM298.93 25.5547V21.2031C298.93 20.8698 298.862 20.5807 298.727 20.3359C298.596 20.0859 298.398 19.8932 298.133 19.7578C297.867 19.6224 297.539 19.5547 297.148 19.5547C296.784 19.5547 296.464 19.6172 296.188 19.7422C295.917 19.8672 295.703 20.0312 295.547 20.2344C295.396 20.4375 295.32 20.6562 295.32 20.8906H293.875C293.875 20.5885 293.953 20.2891 294.109 19.9922C294.266 19.6953 294.49 19.4271 294.781 19.1875C295.078 18.9427 295.432 18.75 295.844 18.6094C296.26 18.4635 296.724 18.3906 297.234 18.3906C297.849 18.3906 298.391 18.4948 298.859 18.7031C299.333 18.9115 299.703 19.2266 299.969 19.6484C300.24 20.0651 300.375 20.5885 300.375 21.2188V25.1562C300.375 25.4375 300.398 25.737 300.445 26.0547C300.497 26.3724 300.573 26.6458 300.672 26.875V27H299.164C299.091 26.8333 299.034 26.612 298.992 26.3359C298.951 26.0547 298.93 25.7943 298.93 25.5547ZM299.18 21.875L299.195 22.8906H297.734C297.323 22.8906 296.956 22.9245 296.633 22.9922C296.31 23.0547 296.039 23.151 295.82 23.2812C295.602 23.4115 295.435 23.5755 295.32 23.7734C295.206 23.9661 295.148 24.1927 295.148 24.4531C295.148 24.7188 295.208 24.9609 295.328 25.1797C295.448 25.3984 295.628 25.5729 295.867 25.7031C296.112 25.8281 296.411 25.8906 296.766 25.8906C297.208 25.8906 297.599 25.7969 297.938 25.6094C298.276 25.4219 298.544 25.1927 298.742 24.9219C298.945 24.651 299.055 24.388 299.07 24.1328L299.688 24.8281C299.651 25.0469 299.552 25.2891 299.391 25.5547C299.229 25.8203 299.013 26.0755 298.742 26.3203C298.477 26.5599 298.159 26.7604 297.789 26.9219C297.424 27.0781 297.013 27.1562 296.555 27.1562C295.982 27.1562 295.479 27.0443 295.047 26.8203C294.62 26.5964 294.286 26.2969 294.047 25.9219C293.812 25.5417 293.695 25.1172 293.695 24.6484C293.695 24.1953 293.784 23.7969 293.961 23.4531C294.138 23.1042 294.393 22.8151 294.727 22.5859C295.06 22.3516 295.461 22.1745 295.93 22.0547C296.398 21.9349 296.922 21.875 297.5 21.875H299.18ZM311.602 25.5547V21.2031C311.602 20.8698 311.534 20.5807 311.398 20.3359C311.268 20.0859 311.07 19.8932 310.805 19.7578C310.539 19.6224 310.211 19.5547 309.82 19.5547C309.456 19.5547 309.135 19.6172 308.859 19.7422C308.589 19.8672 308.375 20.0312 308.219 20.2344C308.068 20.4375 307.992 20.6562 307.992 20.8906H306.547C306.547 20.5885 306.625 20.2891 306.781 19.9922C306.938 19.6953 307.161 19.4271 307.453 19.1875C307.75 18.9427 308.104 18.75 308.516 18.6094C308.932 18.4635 309.396 18.3906 309.906 18.3906C310.521 18.3906 311.062 18.4948 311.531 18.7031C312.005 18.9115 312.375 19.2266 312.641 19.6484C312.911 20.0651 313.047 20.5885 313.047 21.2188V25.1562C313.047 25.4375 313.07 25.737 313.117 26.0547C313.169 26.3724 313.245 26.6458 313.344 26.875V27H311.836C311.763 26.8333 311.706 26.612 311.664 26.3359C311.622 26.0547 311.602 25.7943 311.602 25.5547ZM311.852 21.875L311.867 22.8906H310.406C309.995 22.8906 309.628 22.9245 309.305 22.9922C308.982 23.0547 308.711 23.151 308.492 23.2812C308.273 23.4115 308.107 23.5755 307.992 23.7734C307.878 23.9661 307.82 24.1927 307.82 24.4531C307.82 24.7188 307.88 24.9609 308 25.1797C308.12 25.3984 308.299 25.5729 308.539 25.7031C308.784 25.8281 309.083 25.8906 309.438 25.8906C309.88 25.8906 310.271 25.7969 310.609 25.6094C310.948 25.4219 311.216 25.1927 311.414 24.9219C311.617 24.651 311.727 24.388 311.742 24.1328L312.359 24.8281C312.323 25.0469 312.224 25.2891 312.062 25.5547C311.901 25.8203 311.685 26.0755 311.414 26.3203C311.148 26.5599 310.831 26.7604 310.461 26.9219C310.096 27.0781 309.685 27.1562 309.227 27.1562C308.654 27.1562 308.151 27.0443 307.719 26.8203C307.292 26.5964 306.958 26.2969 306.719 25.9219C306.484 25.5417 306.367 25.1172 306.367 24.6484C306.367 24.1953 306.456 23.7969 306.633 23.4531C306.81 23.1042 307.065 22.8151 307.398 22.5859C307.732 22.3516 308.133 22.1745 308.602 22.0547C309.07 21.9349 309.594 21.875 310.172 21.875H311.852ZM316.766 20.3516V27H315.32V18.5469H316.688L316.766 20.3516ZM316.422 22.4531L315.82 22.4297C315.826 21.8516 315.911 21.3177 316.078 20.8281C316.245 20.3333 316.479 19.9036 316.781 19.5391C317.083 19.1745 317.443 18.8932 317.859 18.6953C318.281 18.4922 318.747 18.3906 319.258 18.3906C319.674 18.3906 320.049 18.4479 320.383 18.5625C320.716 18.6719 321 18.849 321.234 19.0938C321.474 19.3385 321.656 19.6562 321.781 20.0469C321.906 20.4323 321.969 20.9036 321.969 21.4609V27H320.516V21.4453C320.516 21.0026 320.451 20.6484 320.32 20.3828C320.19 20.112 320 19.9167 319.75 19.7969C319.5 19.6719 319.193 19.6094 318.828 19.6094C318.469 19.6094 318.141 19.6849 317.844 19.8359C317.552 19.987 317.299 20.1953 317.086 20.4609C316.878 20.7266 316.714 21.0312 316.594 21.375C316.479 21.7135 316.422 22.0729 316.422 22.4531ZM329.492 25.3594V15H330.945V27H329.617L329.492 25.3594ZM323.805 22.8672V22.7031C323.805 22.0573 323.883 21.4714 324.039 20.9453C324.201 20.4141 324.427 19.9583 324.719 19.5781C325.016 19.1979 325.367 18.9062 325.773 18.7031C326.185 18.4948 326.643 18.3906 327.148 18.3906C327.68 18.3906 328.143 18.4844 328.539 18.6719C328.94 18.8542 329.279 19.1224 329.555 19.4766C329.836 19.8255 330.057 20.2474 330.219 20.7422C330.38 21.237 330.492 21.7969 330.555 22.4219V23.1406C330.497 23.7604 330.385 24.3177 330.219 24.8125C330.057 25.3073 329.836 25.7292 329.555 26.0781C329.279 26.4271 328.94 26.6953 328.539 26.8828C328.138 27.0651 327.669 27.1562 327.133 27.1562C326.638 27.1562 326.185 27.0495 325.773 26.8359C325.367 26.6224 325.016 26.3229 324.719 25.9375C324.427 25.5521 324.201 25.099 324.039 24.5781C323.883 24.0521 323.805 23.4818 323.805 22.8672ZM325.258 22.7031V22.8672C325.258 23.2891 325.299 23.6849 325.383 24.0547C325.471 24.4245 325.607 24.75 325.789 25.0312C325.971 25.3125 326.203 25.5339 326.484 25.6953C326.766 25.8516 327.102 25.9297 327.492 25.9297C327.971 25.9297 328.365 25.8281 328.672 25.625C328.984 25.4219 329.234 25.1536 329.422 24.8203C329.609 24.487 329.755 24.125 329.859 23.7344V21.8516C329.797 21.5651 329.706 21.2891 329.586 21.0234C329.471 20.7526 329.32 20.513 329.133 20.3047C328.951 20.0911 328.724 19.9219 328.453 19.7969C328.188 19.6719 327.872 19.6094 327.508 19.6094C327.112 19.6094 326.771 19.6927 326.484 19.8594C326.203 20.0208 325.971 20.2448 325.789 20.5312C325.607 20.8125 325.471 21.1406 325.383 21.5156C325.299 21.8854 325.258 22.2812 325.258 22.7031ZM340.703 18.5469V19.6562H336.133V18.5469H340.703ZM337.68 16.4922H339.125V24.9062C339.125 25.1927 339.169 25.4089 339.258 25.5547C339.346 25.7005 339.461 25.7969 339.602 25.8438C339.742 25.8906 339.893 25.9141 340.055 25.9141C340.174 25.9141 340.299 25.9036 340.43 25.8828C340.565 25.8568 340.667 25.8359 340.734 25.8203L340.742 27C340.628 27.0365 340.477 27.0703 340.289 27.1016C340.107 27.138 339.885 27.1562 339.625 27.1562C339.271 27.1562 338.945 27.0859 338.648 26.9453C338.352 26.8047 338.115 26.5703 337.938 26.2422C337.766 25.9089 337.68 25.4609 337.68 24.8984V16.4922ZM343.844 15V27H342.398V15H343.844ZM343.5 22.4531L342.898 22.4297C342.904 21.8516 342.99 21.3177 343.156 20.8281C343.323 20.3333 343.557 19.9036 343.859 19.5391C344.161 19.1745 344.521 18.8932 344.938 18.6953C345.359 18.4922 345.826 18.3906 346.336 18.3906C346.753 18.3906 347.128 18.4479 347.461 18.5625C347.794 18.6719 348.078 18.849 348.312 19.0938C348.552 19.3385 348.734 19.6562 348.859 20.0469C348.984 20.4323 349.047 20.9036 349.047 21.4609V27H347.594V21.4453C347.594 21.0026 347.529 20.6484 347.398 20.3828C347.268 20.112 347.078 19.9167 346.828 19.7969C346.578 19.6719 346.271 19.6094 345.906 19.6094C345.547 19.6094 345.219 19.6849 344.922 19.8359C344.63 19.987 344.378 20.1953 344.164 20.4609C343.956 20.7266 343.792 21.0312 343.672 21.375C343.557 21.7135 343.5 22.0729 343.5 22.4531ZM354.719 27.1562C354.13 27.1562 353.596 27.0573 353.117 26.8594C352.643 26.6562 352.234 26.3724 351.891 26.0078C351.552 25.6432 351.292 25.2109 351.109 24.7109C350.927 24.2109 350.836 23.6641 350.836 23.0703V22.7422C350.836 22.0547 350.938 21.4427 351.141 20.9062C351.344 20.3646 351.62 19.9062 351.969 19.5312C352.318 19.1562 352.714 18.8724 353.156 18.6797C353.599 18.487 354.057 18.3906 354.531 18.3906C355.135 18.3906 355.656 18.4948 356.094 18.7031C356.536 18.9115 356.898 19.2031 357.18 19.5781C357.461 19.9479 357.669 20.3854 357.805 20.8906C357.94 21.3906 358.008 21.9375 358.008 22.5312V23.1797H351.695V22H356.562V21.8906C356.542 21.5156 356.464 21.151 356.328 20.7969C356.198 20.4427 355.99 20.151 355.703 19.9219C355.417 19.6927 355.026 19.5781 354.531 19.5781C354.203 19.5781 353.901 19.6484 353.625 19.7891C353.349 19.9245 353.112 20.1276 352.914 20.3984C352.716 20.6693 352.562 21 352.453 21.3906C352.344 21.7812 352.289 22.2318 352.289 22.7422V23.0703C352.289 23.4714 352.344 23.849 352.453 24.2031C352.568 24.5521 352.732 24.8594 352.945 25.125C353.164 25.3906 353.427 25.599 353.734 25.75C354.047 25.901 354.401 25.9766 354.797 25.9766C355.307 25.9766 355.74 25.8724 356.094 25.6641C356.448 25.4557 356.758 25.1771 357.023 24.8281L357.898 25.5234C357.716 25.7995 357.484 26.0625 357.203 26.3125C356.922 26.5625 356.576 26.7656 356.164 26.9219C355.758 27.0781 355.276 27.1562 354.719 27.1562ZM370.391 15.625H371.891V23.3203C371.891 24.1745 371.701 24.8854 371.32 25.4531C370.94 26.0208 370.435 26.4479 369.805 26.7344C369.18 27.0156 368.5 27.1562 367.766 27.1562C366.995 27.1562 366.297 27.0156 365.672 26.7344C365.052 26.4479 364.56 26.0208 364.195 25.4531C363.836 24.8854 363.656 24.1745 363.656 23.3203V15.625H365.148V23.3203C365.148 23.9141 365.258 24.4036 365.477 24.7891C365.695 25.1745 366 25.4609 366.391 25.6484C366.786 25.8359 367.245 25.9297 367.766 25.9297C368.292 25.9297 368.75 25.8359 369.141 25.6484C369.536 25.4609 369.844 25.1745 370.062 24.7891C370.281 24.4036 370.391 23.9141 370.391 23.3203V15.625ZM380.32 24.125C380.32 23.8594 380.279 23.625 380.195 23.4219C380.117 23.2135 379.977 23.026 379.773 22.8594C379.576 22.6927 379.299 22.5339 378.945 22.3828C378.596 22.2318 378.154 22.0781 377.617 21.9219C377.055 21.7552 376.547 21.5703 376.094 21.3672C375.641 21.1589 375.253 20.9219 374.93 20.6562C374.607 20.3906 374.359 20.0859 374.188 19.7422C374.016 19.3984 373.93 19.0052 373.93 18.5625C373.93 18.1198 374.021 17.7109 374.203 17.3359C374.385 16.9609 374.646 16.6354 374.984 16.3594C375.328 16.0781 375.737 15.8594 376.211 15.7031C376.685 15.5469 377.214 15.4688 377.797 15.4688C378.651 15.4688 379.375 15.6328 379.969 15.9609C380.568 16.2839 381.023 16.7083 381.336 17.2344C381.648 17.7552 381.805 18.3125 381.805 18.9062H380.305C380.305 18.4792 380.214 18.1016 380.031 17.7734C379.849 17.4401 379.573 17.1797 379.203 16.9922C378.833 16.7995 378.365 16.7031 377.797 16.7031C377.26 16.7031 376.818 16.7839 376.469 16.9453C376.12 17.1068 375.859 17.3255 375.688 17.6016C375.521 17.8776 375.438 18.1927 375.438 18.5469C375.438 18.7865 375.487 19.0052 375.586 19.2031C375.69 19.3958 375.849 19.5755 376.062 19.7422C376.281 19.9089 376.557 20.0625 376.891 20.2031C377.229 20.3438 377.633 20.4792 378.102 20.6094C378.747 20.7917 379.305 20.9948 379.773 21.2188C380.242 21.4427 380.628 21.6953 380.93 21.9766C381.237 22.2526 381.464 22.5677 381.609 22.9219C381.76 23.2708 381.836 23.6667 381.836 24.1094C381.836 24.5729 381.742 24.9922 381.555 25.3672C381.367 25.7422 381.099 26.0625 380.75 26.3281C380.401 26.5938 379.982 26.7995 379.492 26.9453C379.008 27.0859 378.466 27.1562 377.867 27.1562C377.341 27.1562 376.823 27.0833 376.312 26.9375C375.807 26.7917 375.346 26.5729 374.93 26.2812C374.518 25.9896 374.188 25.6302 373.938 25.2031C373.693 24.7708 373.57 24.2708 373.57 23.7031H375.07C375.07 24.0938 375.146 24.4297 375.297 24.7109C375.448 24.987 375.654 25.2161 375.914 25.3984C376.18 25.5807 376.479 25.7161 376.812 25.8047C377.151 25.888 377.503 25.9297 377.867 25.9297C378.393 25.9297 378.839 25.8568 379.203 25.7109C379.568 25.5651 379.844 25.3568 380.031 25.0859C380.224 24.8151 380.32 24.4948 380.32 24.125ZM387.969 16.6328L384.203 27H382.664L387 15.625H387.992L387.969 16.6328ZM391.125 27L387.352 16.6328L387.328 15.625H388.32L392.672 27H391.125ZM390.93 22.7891V24.0234H384.539V22.7891H390.93ZM401.484 18.5469V19.6562H396.914V18.5469H401.484ZM398.461 16.4922H399.906V24.9062C399.906 25.1927 399.951 25.4089 400.039 25.5547C400.128 25.7005 400.242 25.7969 400.383 25.8438C400.523 25.8906 400.674 25.9141 400.836 25.9141C400.956 25.9141 401.081 25.9036 401.211 25.8828C401.346 25.8568 401.448 25.8359 401.516 25.8203L401.523 27C401.409 27.0365 401.258 27.0703 401.07 27.1016C400.888 27.138 400.667 27.1562 400.406 27.1562C400.052 27.1562 399.727 27.0859 399.43 26.9453C399.133 26.8047 398.896 26.5703 398.719 26.2422C398.547 25.9089 398.461 25.4609 398.461 24.8984V16.4922ZM402.641 22.8672V22.6875C402.641 22.0781 402.729 21.513 402.906 20.9922C403.083 20.4661 403.339 20.0104 403.672 19.625C404.005 19.2344 404.409 18.9323 404.883 18.7188C405.357 18.5 405.888 18.3906 406.477 18.3906C407.07 18.3906 407.604 18.5 408.078 18.7188C408.557 18.9323 408.964 19.2344 409.297 19.625C409.635 20.0104 409.893 20.4661 410.07 20.9922C410.247 21.513 410.336 22.0781 410.336 22.6875V22.8672C410.336 23.4766 410.247 24.0417 410.07 24.5625C409.893 25.0833 409.635 25.5391 409.297 25.9297C408.964 26.3151 408.56 26.6172 408.086 26.8359C407.617 27.0495 407.086 27.1562 406.492 27.1562C405.898 27.1562 405.365 27.0495 404.891 26.8359C404.417 26.6172 404.01 26.3151 403.672 25.9297C403.339 25.5391 403.083 25.0833 402.906 24.5625C402.729 24.0417 402.641 23.4766 402.641 22.8672ZM404.086 22.6875V22.8672C404.086 23.2891 404.135 23.6875 404.234 24.0625C404.333 24.4323 404.482 24.7604 404.68 25.0469C404.883 25.3333 405.135 25.5599 405.438 25.7266C405.74 25.888 406.091 25.9688 406.492 25.9688C406.888 25.9688 407.234 25.888 407.531 25.7266C407.833 25.5599 408.083 25.3333 408.281 25.0469C408.479 24.7604 408.628 24.4323 408.727 24.0625C408.831 23.6875 408.883 23.2891 408.883 22.8672V22.6875C408.883 22.2708 408.831 21.8776 408.727 21.5078C408.628 21.1328 408.477 20.8021 408.273 20.5156C408.076 20.224 407.826 19.9948 407.523 19.8281C407.227 19.6615 406.878 19.5781 406.477 19.5781C406.081 19.5781 405.732 19.6615 405.43 19.8281C405.133 19.9948 404.883 20.224 404.68 20.5156C404.482 20.8021 404.333 21.1328 404.234 21.5078C404.135 21.8776 404.086 22.2708 404.086 22.6875ZM419.5 25.9688C419.844 25.9688 420.161 25.8984 420.453 25.7578C420.745 25.6172 420.984 25.4245 421.172 25.1797C421.359 24.9297 421.466 24.6458 421.492 24.3281H422.867C422.841 24.8281 422.672 25.2943 422.359 25.7266C422.052 26.1536 421.648 26.5 421.148 26.7656C420.648 27.026 420.099 27.1562 419.5 27.1562C418.865 27.1562 418.31 27.0443 417.836 26.8203C417.367 26.5964 416.977 26.2891 416.664 25.8984C416.357 25.5078 416.125 25.0599 415.969 24.5547C415.818 24.0443 415.742 23.5052 415.742 22.9375V22.6094C415.742 22.0417 415.818 21.5052 415.969 21C416.125 20.4896 416.357 20.0391 416.664 19.6484C416.977 19.2578 417.367 18.9505 417.836 18.7266C418.31 18.5026 418.865 18.3906 419.5 18.3906C420.161 18.3906 420.74 18.526 421.234 18.7969C421.729 19.0625 422.117 19.4271 422.398 19.8906C422.685 20.349 422.841 20.8698 422.867 21.4531H421.492C421.466 21.1042 421.367 20.7891 421.195 20.5078C421.029 20.2266 420.799 20.0026 420.508 19.8359C420.221 19.6641 419.885 19.5781 419.5 19.5781C419.057 19.5781 418.685 19.6667 418.383 19.8438C418.086 20.0156 417.849 20.25 417.672 20.5469C417.5 20.8385 417.375 21.1641 417.297 21.5234C417.224 21.8776 417.188 22.2396 417.188 22.6094V22.9375C417.188 23.3073 417.224 23.6719 417.297 24.0312C417.37 24.3906 417.492 24.7161 417.664 25.0078C417.841 25.2995 418.078 25.5339 418.375 25.7109C418.677 25.8828 419.052 25.9688 419.5 25.9688ZM425.938 19.875V27H424.492V18.5469H425.898L425.938 19.875ZM428.578 18.5L428.57 19.8438C428.451 19.8177 428.336 19.8021 428.227 19.7969C428.122 19.7865 428.003 19.7812 427.867 19.7812C427.534 19.7812 427.24 19.8333 426.984 19.9375C426.729 20.0417 426.513 20.1875 426.336 20.375C426.159 20.5625 426.018 20.7865 425.914 21.0469C425.815 21.3021 425.75 21.5833 425.719 21.8906L425.312 22.125C425.312 21.6146 425.362 21.1354 425.461 20.6875C425.565 20.2396 425.724 19.8438 425.938 19.5C426.151 19.151 426.422 18.8802 426.75 18.6875C427.083 18.4896 427.479 18.3906 427.938 18.3906C428.042 18.3906 428.161 18.4036 428.297 18.4297C428.432 18.4505 428.526 18.474 428.578 18.5ZM433.266 27.1562C432.677 27.1562 432.143 27.0573 431.664 26.8594C431.19 26.6562 430.781 26.3724 430.438 26.0078C430.099 25.6432 429.839 25.2109 429.656 24.7109C429.474 24.2109 429.383 23.6641 429.383 23.0703V22.7422C429.383 22.0547 429.484 21.4427 429.688 20.9062C429.891 20.3646 430.167 19.9062 430.516 19.5312C430.865 19.1562 431.26 18.8724 431.703 18.6797C432.146 18.487 432.604 18.3906 433.078 18.3906C433.682 18.3906 434.203 18.4948 434.641 18.7031C435.083 18.9115 435.445 19.2031 435.727 19.5781C436.008 19.9479 436.216 20.3854 436.352 20.8906C436.487 21.3906 436.555 21.9375 436.555 22.5312V23.1797H430.242V22H435.109V21.8906C435.089 21.5156 435.01 21.151 434.875 20.7969C434.745 20.4427 434.536 20.151 434.25 19.9219C433.964 19.6927 433.573 19.5781 433.078 19.5781C432.75 19.5781 432.448 19.6484 432.172 19.7891C431.896 19.9245 431.659 20.1276 431.461 20.3984C431.263 20.6693 431.109 21 431 21.3906C430.891 21.7812 430.836 22.2318 430.836 22.7422V23.0703C430.836 23.4714 430.891 23.849 431 24.2031C431.115 24.5521 431.279 24.8594 431.492 25.125C431.711 25.3906 431.974 25.599 432.281 25.75C432.594 25.901 432.948 25.9766 433.344 25.9766C433.854 25.9766 434.286 25.8724 434.641 25.6641C434.995 25.4557 435.305 25.1771 435.57 24.8281L436.445 25.5234C436.263 25.7995 436.031 26.0625 435.75 26.3125C435.469 26.5625 435.122 26.7656 434.711 26.9219C434.305 27.0781 433.823 27.1562 433.266 27.1562ZM443.227 25.5547V21.2031C443.227 20.8698 443.159 20.5807 443.023 20.3359C442.893 20.0859 442.695 19.8932 442.43 19.7578C442.164 19.6224 441.836 19.5547 441.445 19.5547C441.081 19.5547 440.76 19.6172 440.484 19.7422C440.214 19.8672 440 20.0312 439.844 20.2344C439.693 20.4375 439.617 20.6562 439.617 20.8906H438.172C438.172 20.5885 438.25 20.2891 438.406 19.9922C438.562 19.6953 438.786 19.4271 439.078 19.1875C439.375 18.9427 439.729 18.75 440.141 18.6094C440.557 18.4635 441.021 18.3906 441.531 18.3906C442.146 18.3906 442.688 18.4948 443.156 18.7031C443.63 18.9115 444 19.2266 444.266 19.6484C444.536 20.0651 444.672 20.5885 444.672 21.2188V25.1562C444.672 25.4375 444.695 25.737 444.742 26.0547C444.794 26.3724 444.87 26.6458 444.969 26.875V27H443.461C443.388 26.8333 443.331 26.612 443.289 26.3359C443.247 26.0547 443.227 25.7943 443.227 25.5547ZM443.477 21.875L443.492 22.8906H442.031C441.62 22.8906 441.253 22.9245 440.93 22.9922C440.607 23.0547 440.336 23.151 440.117 23.2812C439.898 23.4115 439.732 23.5755 439.617 23.7734C439.503 23.9661 439.445 24.1927 439.445 24.4531C439.445 24.7188 439.505 24.9609 439.625 25.1797C439.745 25.3984 439.924 25.5729 440.164 25.7031C440.409 25.8281 440.708 25.8906 441.062 25.8906C441.505 25.8906 441.896 25.7969 442.234 25.6094C442.573 25.4219 442.841 25.1927 443.039 24.9219C443.242 24.651 443.352 24.388 443.367 24.1328L443.984 24.8281C443.948 25.0469 443.849 25.2891 443.688 25.5547C443.526 25.8203 443.31 26.0755 443.039 26.3203C442.773 26.5599 442.456 26.7604 442.086 26.9219C441.721 27.0781 441.31 27.1562 440.852 27.1562C440.279 27.1562 439.776 27.0443 439.344 26.8203C438.917 26.5964 438.583 26.2969 438.344 25.9219C438.109 25.5417 437.992 25.1172 437.992 24.6484C437.992 24.1953 438.081 23.7969 438.258 23.4531C438.435 23.1042 438.69 22.8151 439.023 22.5859C439.357 22.3516 439.758 22.1745 440.227 22.0547C440.695 21.9349 441.219 21.875 441.797 21.875H443.477ZM450.484 18.5469V19.6562H445.914V18.5469H450.484ZM447.461 16.4922H448.906V24.9062C448.906 25.1927 448.951 25.4089 449.039 25.5547C449.128 25.7005 449.242 25.7969 449.383 25.8438C449.523 25.8906 449.674 25.9141 449.836 25.9141C449.956 25.9141 450.081 25.9036 450.211 25.8828C450.346 25.8568 450.448 25.8359 450.516 25.8203L450.523 27C450.409 27.0365 450.258 27.0703 450.07 27.1016C449.888 27.138 449.667 27.1562 449.406 27.1562C449.052 27.1562 448.727 27.0859 448.43 26.9453C448.133 26.8047 447.896 26.5703 447.719 26.2422C447.547 25.9089 447.461 25.4609 447.461 24.8984V16.4922ZM455.688 27.1562C455.099 27.1562 454.565 27.0573 454.086 26.8594C453.612 26.6562 453.203 26.3724 452.859 26.0078C452.521 25.6432 452.26 25.2109 452.078 24.7109C451.896 24.2109 451.805 23.6641 451.805 23.0703V22.7422C451.805 22.0547 451.906 21.4427 452.109 20.9062C452.312 20.3646 452.589 19.9062 452.938 19.5312C453.286 19.1562 453.682 18.8724 454.125 18.6797C454.568 18.487 455.026 18.3906 455.5 18.3906C456.104 18.3906 456.625 18.4948 457.062 18.7031C457.505 18.9115 457.867 19.2031 458.148 19.5781C458.43 19.9479 458.638 20.3854 458.773 20.8906C458.909 21.3906 458.977 21.9375 458.977 22.5312V23.1797H452.664V22H457.531V21.8906C457.51 21.5156 457.432 21.151 457.297 20.7969C457.167 20.4427 456.958 20.151 456.672 19.9219C456.385 19.6927 455.995 19.5781 455.5 19.5781C455.172 19.5781 454.87 19.6484 454.594 19.7891C454.318 19.9245 454.081 20.1276 453.883 20.3984C453.685 20.6693 453.531 21 453.422 21.3906C453.312 21.7812 453.258 22.2318 453.258 22.7422V23.0703C453.258 23.4714 453.312 23.849 453.422 24.2031C453.536 24.5521 453.701 24.8594 453.914 25.125C454.133 25.3906 454.396 25.599 454.703 25.75C455.016 25.901 455.37 25.9766 455.766 25.9766C456.276 25.9766 456.708 25.8724 457.062 25.6641C457.417 25.4557 457.727 25.1771 457.992 24.8281L458.867 25.5234C458.685 25.7995 458.453 26.0625 458.172 26.3125C457.891 26.5625 457.544 26.7656 457.133 26.9219C456.727 27.0781 456.245 27.1562 455.688 27.1562ZM469.617 25.5547V21.2031C469.617 20.8698 469.549 20.5807 469.414 20.3359C469.284 20.0859 469.086 19.8932 468.82 19.7578C468.555 19.6224 468.227 19.5547 467.836 19.5547C467.471 19.5547 467.151 19.6172 466.875 19.7422C466.604 19.8672 466.391 20.0312 466.234 20.2344C466.083 20.4375 466.008 20.6562 466.008 20.8906H464.562C464.562 20.5885 464.641 20.2891 464.797 19.9922C464.953 19.6953 465.177 19.4271 465.469 19.1875C465.766 18.9427 466.12 18.75 466.531 18.6094C466.948 18.4635 467.411 18.3906 467.922 18.3906C468.536 18.3906 469.078 18.4948 469.547 18.7031C470.021 18.9115 470.391 19.2266 470.656 19.6484C470.927 20.0651 471.062 20.5885 471.062 21.2188V25.1562C471.062 25.4375 471.086 25.737 471.133 26.0547C471.185 26.3724 471.26 26.6458 471.359 26.875V27H469.852C469.779 26.8333 469.721 26.612 469.68 26.3359C469.638 26.0547 469.617 25.7943 469.617 25.5547ZM469.867 21.875L469.883 22.8906H468.422C468.01 22.8906 467.643 22.9245 467.32 22.9922C466.997 23.0547 466.727 23.151 466.508 23.2812C466.289 23.4115 466.122 23.5755 466.008 23.7734C465.893 23.9661 465.836 24.1927 465.836 24.4531C465.836 24.7188 465.896 24.9609 466.016 25.1797C466.135 25.3984 466.315 25.5729 466.555 25.7031C466.799 25.8281 467.099 25.8906 467.453 25.8906C467.896 25.8906 468.286 25.7969 468.625 25.6094C468.964 25.4219 469.232 25.1927 469.43 24.9219C469.633 24.651 469.742 24.388 469.758 24.1328L470.375 24.8281C470.339 25.0469 470.24 25.2891 470.078 25.5547C469.917 25.8203 469.701 26.0755 469.43 26.3203C469.164 26.5599 468.846 26.7604 468.477 26.9219C468.112 27.0781 467.701 27.1562 467.242 27.1562C466.669 27.1562 466.167 27.0443 465.734 26.8203C465.307 26.5964 464.974 26.2969 464.734 25.9219C464.5 25.5417 464.383 25.1172 464.383 24.6484C464.383 24.1953 464.471 23.7969 464.648 23.4531C464.826 23.1042 465.081 22.8151 465.414 22.5859C465.747 22.3516 466.148 22.1745 466.617 22.0547C467.086 21.9349 467.609 21.875 468.188 21.875H469.867ZM476.719 25.9688C477.062 25.9688 477.38 25.8984 477.672 25.7578C477.964 25.6172 478.203 25.4245 478.391 25.1797C478.578 24.9297 478.685 24.6458 478.711 24.3281H480.086C480.06 24.8281 479.891 25.2943 479.578 25.7266C479.271 26.1536 478.867 26.5 478.367 26.7656C477.867 27.026 477.318 27.1562 476.719 27.1562C476.083 27.1562 475.529 27.0443 475.055 26.8203C474.586 26.5964 474.195 26.2891 473.883 25.8984C473.576 25.5078 473.344 25.0599 473.188 24.5547C473.036 24.0443 472.961 23.5052 472.961 22.9375V22.6094C472.961 22.0417 473.036 21.5052 473.188 21C473.344 20.4896 473.576 20.0391 473.883 19.6484C474.195 19.2578 474.586 18.9505 475.055 18.7266C475.529 18.5026 476.083 18.3906 476.719 18.3906C477.38 18.3906 477.958 18.526 478.453 18.7969C478.948 19.0625 479.336 19.4271 479.617 19.8906C479.904 20.349 480.06 20.8698 480.086 21.4531H478.711C478.685 21.1042 478.586 20.7891 478.414 20.5078C478.247 20.2266 478.018 20.0026 477.727 19.8359C477.44 19.6641 477.104 19.5781 476.719 19.5781C476.276 19.5781 475.904 19.6667 475.602 19.8438C475.305 20.0156 475.068 20.25 474.891 20.5469C474.719 20.8385 474.594 21.1641 474.516 21.5234C474.443 21.8776 474.406 22.2396 474.406 22.6094V22.9375C474.406 23.3073 474.443 23.6719 474.516 24.0312C474.589 24.3906 474.711 24.7161 474.883 25.0078C475.06 25.2995 475.297 25.5339 475.594 25.7109C475.896 25.8828 476.271 25.9688 476.719 25.9688ZM485.094 25.9688C485.438 25.9688 485.755 25.8984 486.047 25.7578C486.339 25.6172 486.578 25.4245 486.766 25.1797C486.953 24.9297 487.06 24.6458 487.086 24.3281H488.461C488.435 24.8281 488.266 25.2943 487.953 25.7266C487.646 26.1536 487.242 26.5 486.742 26.7656C486.242 27.026 485.693 27.1562 485.094 27.1562C484.458 27.1562 483.904 27.0443 483.43 26.8203C482.961 26.5964 482.57 26.2891 482.258 25.8984C481.951 25.5078 481.719 25.0599 481.562 24.5547C481.411 24.0443 481.336 23.5052 481.336 22.9375V22.6094C481.336 22.0417 481.411 21.5052 481.562 21C481.719 20.4896 481.951 20.0391 482.258 19.6484C482.57 19.2578 482.961 18.9505 483.43 18.7266C483.904 18.5026 484.458 18.3906 485.094 18.3906C485.755 18.3906 486.333 18.526 486.828 18.7969C487.323 19.0625 487.711 19.4271 487.992 19.8906C488.279 20.349 488.435 20.8698 488.461 21.4531H487.086C487.06 21.1042 486.961 20.7891 486.789 20.5078C486.622 20.2266 486.393 20.0026 486.102 19.8359C485.815 19.6641 485.479 19.5781 485.094 19.5781C484.651 19.5781 484.279 19.6667 483.977 19.8438C483.68 20.0156 483.443 20.25 483.266 20.5469C483.094 20.8385 482.969 21.1641 482.891 21.5234C482.818 21.8776 482.781 22.2396 482.781 22.6094V22.9375C482.781 23.3073 482.818 23.6719 482.891 24.0312C482.964 24.3906 483.086 24.7161 483.258 25.0078C483.435 25.2995 483.672 25.5339 483.969 25.7109C484.271 25.8828 484.646 25.9688 485.094 25.9688ZM493.594 27.1562C493.005 27.1562 492.471 27.0573 491.992 26.8594C491.518 26.6562 491.109 26.3724 490.766 26.0078C490.427 25.6432 490.167 25.2109 489.984 24.7109C489.802 24.2109 489.711 23.6641 489.711 23.0703V22.7422C489.711 22.0547 489.812 21.4427 490.016 20.9062C490.219 20.3646 490.495 19.9062 490.844 19.5312C491.193 19.1562 491.589 18.8724 492.031 18.6797C492.474 18.487 492.932 18.3906 493.406 18.3906C494.01 18.3906 494.531 18.4948 494.969 18.7031C495.411 18.9115 495.773 19.2031 496.055 19.5781C496.336 19.9479 496.544 20.3854 496.68 20.8906C496.815 21.3906 496.883 21.9375 496.883 22.5312V23.1797H490.57V22H495.438V21.8906C495.417 21.5156 495.339 21.151 495.203 20.7969C495.073 20.4427 494.865 20.151 494.578 19.9219C494.292 19.6927 493.901 19.5781 493.406 19.5781C493.078 19.5781 492.776 19.6484 492.5 19.7891C492.224 19.9245 491.987 20.1276 491.789 20.3984C491.591 20.6693 491.438 21 491.328 21.3906C491.219 21.7812 491.164 22.2318 491.164 22.7422V23.0703C491.164 23.4714 491.219 23.849 491.328 24.2031C491.443 24.5521 491.607 24.8594 491.82 25.125C492.039 25.3906 492.302 25.599 492.609 25.75C492.922 25.901 493.276 25.9766 493.672 25.9766C494.182 25.9766 494.615 25.8724 494.969 25.6641C495.323 25.4557 495.633 25.1771 495.898 24.8281L496.773 25.5234C496.591 25.7995 496.359 26.0625 496.078 26.3125C495.797 26.5625 495.451 26.7656 495.039 26.9219C494.633 27.0781 494.151 27.1562 493.594 27.1562ZM503.492 24.7578C503.492 24.5495 503.445 24.3568 503.352 24.1797C503.263 23.9974 503.078 23.8333 502.797 23.6875C502.521 23.5365 502.104 23.4062 501.547 23.2969C501.078 23.1979 500.654 23.0807 500.273 22.9453C499.898 22.8099 499.578 22.6458 499.312 22.4531C499.052 22.2604 498.852 22.0339 498.711 21.7734C498.57 21.513 498.5 21.2083 498.5 20.8594C498.5 20.526 498.573 20.2109 498.719 19.9141C498.87 19.6172 499.081 19.3542 499.352 19.125C499.628 18.8958 499.958 18.7161 500.344 18.5859C500.729 18.4557 501.159 18.3906 501.633 18.3906C502.31 18.3906 502.888 18.5104 503.367 18.75C503.846 18.9896 504.214 19.3099 504.469 19.7109C504.724 20.1068 504.852 20.5469 504.852 21.0312H503.406C503.406 20.7969 503.336 20.5703 503.195 20.3516C503.06 20.1276 502.859 19.9427 502.594 19.7969C502.333 19.651 502.013 19.5781 501.633 19.5781C501.232 19.5781 500.906 19.6406 500.656 19.7656C500.411 19.8854 500.232 20.0391 500.117 20.2266C500.008 20.4141 499.953 20.612 499.953 20.8203C499.953 20.9766 499.979 21.1172 500.031 21.2422C500.089 21.362 500.188 21.474 500.328 21.5781C500.469 21.6771 500.667 21.7708 500.922 21.8594C501.177 21.9479 501.503 22.0365 501.898 22.125C502.591 22.2812 503.161 22.4688 503.609 22.6875C504.057 22.9062 504.391 23.1745 504.609 23.4922C504.828 23.8099 504.938 24.1953 504.938 24.6484C504.938 25.0182 504.859 25.3568 504.703 25.6641C504.552 25.9714 504.331 26.237 504.039 26.4609C503.753 26.6797 503.409 26.8516 503.008 26.9766C502.612 27.0964 502.167 27.1562 501.672 27.1562C500.927 27.1562 500.297 27.0234 499.781 26.7578C499.266 26.4922 498.875 26.1484 498.609 25.7266C498.344 25.3047 498.211 24.8594 498.211 24.3906H499.664C499.685 24.7865 499.799 25.1016 500.008 25.3359C500.216 25.5651 500.471 25.7292 500.773 25.8281C501.076 25.9219 501.375 25.9688 501.672 25.9688C502.068 25.9688 502.398 25.9167 502.664 25.8125C502.935 25.7083 503.141 25.5651 503.281 25.3828C503.422 25.2005 503.492 24.9922 503.492 24.7578ZM511.758 24.7578C511.758 24.5495 511.711 24.3568 511.617 24.1797C511.529 23.9974 511.344 23.8333 511.062 23.6875C510.786 23.5365 510.37 23.4062 509.812 23.2969C509.344 23.1979 508.919 23.0807 508.539 22.9453C508.164 22.8099 507.844 22.6458 507.578 22.4531C507.318 22.2604 507.117 22.0339 506.977 21.7734C506.836 21.513 506.766 21.2083 506.766 20.8594C506.766 20.526 506.839 20.2109 506.984 19.9141C507.135 19.6172 507.346 19.3542 507.617 19.125C507.893 18.8958 508.224 18.7161 508.609 18.5859C508.995 18.4557 509.424 18.3906 509.898 18.3906C510.576 18.3906 511.154 18.5104 511.633 18.75C512.112 18.9896 512.479 19.3099 512.734 19.7109C512.99 20.1068 513.117 20.5469 513.117 21.0312H511.672C511.672 20.7969 511.602 20.5703 511.461 20.3516C511.326 20.1276 511.125 19.9427 510.859 19.7969C510.599 19.651 510.279 19.5781 509.898 19.5781C509.497 19.5781 509.172 19.6406 508.922 19.7656C508.677 19.8854 508.497 20.0391 508.383 20.2266C508.273 20.4141 508.219 20.612 508.219 20.8203C508.219 20.9766 508.245 21.1172 508.297 21.2422C508.354 21.362 508.453 21.474 508.594 21.5781C508.734 21.6771 508.932 21.7708 509.188 21.8594C509.443 21.9479 509.768 22.0365 510.164 22.125C510.857 22.2812 511.427 22.4688 511.875 22.6875C512.323 22.9062 512.656 23.1745 512.875 23.4922C513.094 23.8099 513.203 24.1953 513.203 24.6484C513.203 25.0182 513.125 25.3568 512.969 25.6641C512.818 25.9714 512.596 26.237 512.305 26.4609C512.018 26.6797 511.674 26.8516 511.273 26.9766C510.878 27.0964 510.432 27.1562 509.938 27.1562C509.193 27.1562 508.562 27.0234 508.047 26.7578C507.531 26.4922 507.141 26.1484 506.875 25.7266C506.609 25.3047 506.477 24.8594 506.477 24.3906H507.93C507.951 24.7865 508.065 25.1016 508.273 25.3359C508.482 25.5651 508.737 25.7292 509.039 25.8281C509.341 25.9219 509.641 25.9688 509.938 25.9688C510.333 25.9688 510.664 25.9167 510.93 25.8125C511.201 25.7083 511.406 25.5651 511.547 25.3828C511.688 25.2005 511.758 24.9922 511.758 24.7578ZM516.672 18.5469V27H515.219V18.5469H516.672ZM515.109 16.3047C515.109 16.0703 515.18 15.8724 515.32 15.7109C515.466 15.5495 515.68 15.4688 515.961 15.4688C516.237 15.4688 516.448 15.5495 516.594 15.7109C516.745 15.8724 516.82 16.0703 516.82 16.3047C516.82 16.5286 516.745 16.7214 516.594 16.8828C516.448 17.0391 516.237 17.1172 515.961 17.1172C515.68 17.1172 515.466 17.0391 515.32 16.8828C515.18 16.7214 515.109 16.5286 515.109 16.3047ZM518.984 15H520.438V25.3594L520.312 27H518.984V15ZM526.148 22.7031V22.8672C526.148 23.4818 526.076 24.0521 525.93 24.5781C525.784 25.099 525.57 25.5521 525.289 25.9375C525.008 26.3229 524.664 26.6224 524.258 26.8359C523.852 27.0495 523.385 27.1562 522.859 27.1562C522.323 27.1562 521.852 27.0651 521.445 26.8828C521.044 26.6953 520.706 26.4271 520.43 26.0781C520.154 25.7292 519.932 25.3073 519.766 24.8125C519.604 24.3177 519.492 23.7604 519.43 23.1406V22.4219C519.492 21.7969 519.604 21.237 519.766 20.7422C519.932 20.2474 520.154 19.8255 520.43 19.4766C520.706 19.1224 521.044 18.8542 521.445 18.6719C521.846 18.4844 522.312 18.3906 522.844 18.3906C523.375 18.3906 523.846 18.4948 524.258 18.7031C524.669 18.9062 525.013 19.1979 525.289 19.5781C525.57 19.9583 525.784 20.4141 525.93 20.9453C526.076 21.4714 526.148 22.0573 526.148 22.7031ZM524.695 22.8672V22.7031C524.695 22.2812 524.656 21.8854 524.578 21.5156C524.5 21.1406 524.375 20.8125 524.203 20.5312C524.031 20.2448 523.805 20.0208 523.523 19.8594C523.242 19.6927 522.896 19.6094 522.484 19.6094C522.12 19.6094 521.802 19.6719 521.531 19.7969C521.266 19.9219 521.039 20.0911 520.852 20.3047C520.664 20.513 520.51 20.7526 520.391 21.0234C520.276 21.2891 520.19 21.5651 520.133 21.8516V23.7344C520.216 24.099 520.352 24.4505 520.539 24.7891C520.732 25.1224 520.987 25.3958 521.305 25.6094C521.628 25.8229 522.026 25.9297 522.5 25.9297C522.891 25.9297 523.224 25.8516 523.5 25.6953C523.781 25.5339 524.008 25.3125 524.18 25.0312C524.357 24.75 524.487 24.4245 524.57 24.0547C524.654 23.6849 524.695 23.2891 524.695 22.8672ZM529.547 15V27H528.094V15H529.547ZM535.375 27.1562C534.786 27.1562 534.253 27.0573 533.773 26.8594C533.299 26.6562 532.891 26.3724 532.547 26.0078C532.208 25.6432 531.948 25.2109 531.766 24.7109C531.583 24.2109 531.492 23.6641 531.492 23.0703V22.7422C531.492 22.0547 531.594 21.4427 531.797 20.9062C532 20.3646 532.276 19.9062 532.625 19.5312C532.974 19.1562 533.37 18.8724 533.812 18.6797C534.255 18.487 534.714 18.3906 535.188 18.3906C535.792 18.3906 536.312 18.4948 536.75 18.7031C537.193 18.9115 537.555 19.2031 537.836 19.5781C538.117 19.9479 538.326 20.3854 538.461 20.8906C538.596 21.3906 538.664 21.9375 538.664 22.5312V23.1797H532.352V22H537.219V21.8906C537.198 21.5156 537.12 21.151 536.984 20.7969C536.854 20.4427 536.646 20.151 536.359 19.9219C536.073 19.6927 535.682 19.5781 535.188 19.5781C534.859 19.5781 534.557 19.6484 534.281 19.7891C534.005 19.9245 533.768 20.1276 533.57 20.3984C533.372 20.6693 533.219 21 533.109 21.3906C533 21.7812 532.945 22.2318 532.945 22.7422V23.0703C532.945 23.4714 533 23.849 533.109 24.2031C533.224 24.5521 533.388 24.8594 533.602 25.125C533.82 25.3906 534.083 25.599 534.391 25.75C534.703 25.901 535.057 25.9766 535.453 25.9766C535.964 25.9766 536.396 25.8724 536.75 25.6641C537.104 25.4557 537.414 25.1771 537.68 24.8281L538.555 25.5234C538.372 25.7995 538.141 26.0625 537.859 26.3125C537.578 26.5625 537.232 26.7656 536.82 26.9219C536.414 27.0781 535.932 27.1562 535.375 27.1562ZM38.4297 53.3594V43H39.8828V55H38.5547L38.4297 53.3594ZM32.7422 50.8672V50.7031C32.7422 50.0573 32.8203 49.4714 32.9766 48.9453C33.138 48.4141 33.3646 47.9583 33.6562 47.5781C33.9531 47.1979 34.3047 46.9062 34.7109 46.7031C35.1224 46.4948 35.5807 46.3906 36.0859 46.3906C36.6172 46.3906 37.0807 46.4844 37.4766 46.6719C37.8776 46.8542 38.2161 47.1224 38.4922 47.4766C38.7734 47.8255 38.9948 48.2474 39.1562 48.7422C39.3177 49.237 39.4297 49.7969 39.4922 50.4219V51.1406C39.4349 51.7604 39.3229 52.3177 39.1562 52.8125C38.9948 53.3073 38.7734 53.7292 38.4922 54.0781C38.2161 54.4271 37.8776 54.6953 37.4766 54.8828C37.0755 55.0651 36.6068 55.1562 36.0703 55.1562C35.5755 55.1562 35.1224 55.0495 34.7109 54.8359C34.3047 54.6224 33.9531 54.3229 33.6562 53.9375C33.3646 53.5521 33.138 53.099 32.9766 52.5781C32.8203 52.0521 32.7422 51.4818 32.7422 50.8672ZM34.1953 50.7031V50.8672C34.1953 51.2891 34.237 51.6849 34.3203 52.0547C34.4089 52.4245 34.5443 52.75 34.7266 53.0312C34.9089 53.3125 35.1406 53.5339 35.4219 53.6953C35.7031 53.8516 36.0391 53.9297 36.4297 53.9297C36.9089 53.9297 37.3021 53.8281 37.6094 53.625C37.9219 53.4219 38.1719 53.1536 38.3594 52.8203C38.5469 52.487 38.6927 52.125 38.7969 51.7344V49.8516C38.7344 49.5651 38.6432 49.2891 38.5234 49.0234C38.4089 48.7526 38.2578 48.513 38.0703 48.3047C37.888 48.0911 37.6615 47.9219 37.3906 47.7969C37.125 47.6719 36.8099 47.6094 36.4453 47.6094C36.0495 47.6094 35.7083 47.6927 35.4219 47.8594C35.1406 48.0208 34.9089 48.2448 34.7266 48.5312C34.5443 48.8125 34.4089 49.1406 34.3203 49.5156C34.237 49.8854 34.1953 50.2812 34.1953 50.7031ZM43.7031 46.5469V55H42.25V46.5469H43.7031ZM42.1406 44.3047C42.1406 44.0703 42.2109 43.8724 42.3516 43.7109C42.4974 43.5495 42.7109 43.4688 42.9922 43.4688C43.2682 43.4688 43.4792 43.5495 43.625 43.7109C43.776 43.8724 43.8516 44.0703 43.8516 44.3047C43.8516 44.5286 43.776 44.7214 43.625 44.8828C43.4792 45.0391 43.2682 45.1172 42.9922 45.1172C42.7109 45.1172 42.4974 45.0391 42.3516 44.8828C42.2109 44.7214 42.1406 44.5286 42.1406 44.3047ZM51.5 46.5469H52.8125V54.8203C52.8125 55.5651 52.6615 56.2005 52.3594 56.7266C52.0573 57.2526 51.6354 57.651 51.0938 57.9219C50.5573 58.1979 49.9375 58.3359 49.2344 58.3359C48.9427 58.3359 48.599 58.2891 48.2031 58.1953C47.8125 58.1068 47.4271 57.9531 47.0469 57.7344C46.6719 57.5208 46.3568 57.2318 46.1016 56.8672L46.8594 56.0078C47.2135 56.4349 47.5833 56.7318 47.9688 56.8984C48.3594 57.0651 48.7448 57.1484 49.125 57.1484C49.5833 57.1484 49.9792 57.0625 50.3125 56.8906C50.6458 56.7188 50.9036 56.4635 51.0859 56.125C51.2734 55.7917 51.3672 55.3802 51.3672 54.8906V48.4062L51.5 46.5469ZM45.6797 50.8672V50.7031C45.6797 50.0573 45.7552 49.4714 45.9062 48.9453C46.0625 48.4141 46.2839 47.9583 46.5703 47.5781C46.862 47.1979 47.2135 46.9062 47.625 46.7031C48.0365 46.4948 48.5 46.3906 49.0156 46.3906C49.5469 46.3906 50.0104 46.4844 50.4062 46.6719C50.8073 46.8542 51.1458 47.1224 51.4219 47.4766C51.7031 47.8255 51.9245 48.2474 52.0859 48.7422C52.2474 49.237 52.3594 49.7969 52.4219 50.4219V51.1406C52.3646 51.7604 52.2526 52.3177 52.0859 52.8125C51.9245 53.3073 51.7031 53.7292 51.4219 54.0781C51.1458 54.4271 50.8073 54.6953 50.4062 54.8828C50.0052 55.0651 49.5365 55.1562 49 55.1562C48.4948 55.1562 48.0365 55.0495 47.625 54.8359C47.2188 54.6224 46.8698 54.3229 46.5781 53.9375C46.2865 53.5521 46.0625 53.099 45.9062 52.5781C45.7552 52.0521 45.6797 51.4818 45.6797 50.8672ZM47.125 50.7031V50.8672C47.125 51.2891 47.1667 51.6849 47.25 52.0547C47.3385 52.4245 47.4714 52.75 47.6484 53.0312C47.8307 53.3125 48.0625 53.5339 48.3438 53.6953C48.625 53.8516 48.9609 53.9297 49.3516 53.9297C49.8307 53.9297 50.2266 53.8281 50.5391 53.625C50.8516 53.4219 51.099 53.1536 51.2812 52.8203C51.4688 52.487 51.6146 52.125 51.7188 51.7344V49.8516C51.6615 49.5651 51.5729 49.2891 51.4531 49.0234C51.3385 48.7526 51.1875 48.513 51 48.3047C50.8177 48.0911 50.5911 47.9219 50.3203 47.7969C50.0495 47.6719 49.7318 47.6094 49.3672 47.6094C48.9714 47.6094 48.6302 47.6927 48.3438 47.8594C48.0625 48.0208 47.8307 48.2448 47.6484 48.5312C47.4714 48.8125 47.3385 49.1406 47.25 49.5156C47.1667 49.8854 47.125 50.2812 47.125 50.7031ZM56.5781 46.5469V55H55.125V46.5469H56.5781ZM55.0156 44.3047C55.0156 44.0703 55.0859 43.8724 55.2266 43.7109C55.3724 43.5495 55.5859 43.4688 55.8672 43.4688C56.1432 43.4688 56.3542 43.5495 56.5 43.7109C56.651 43.8724 56.7266 44.0703 56.7266 44.3047C56.7266 44.5286 56.651 44.7214 56.5 44.8828C56.3542 45.0391 56.1432 45.1172 55.8672 45.1172C55.5859 45.1172 55.3724 45.0391 55.2266 44.8828C55.0859 44.7214 55.0156 44.5286 55.0156 44.3047ZM62.4375 46.5469V47.6562H57.8672V46.5469H62.4375ZM59.4141 44.4922H60.8594V52.9062C60.8594 53.1927 60.9036 53.4089 60.9922 53.5547C61.0807 53.7005 61.1953 53.7969 61.3359 53.8438C61.4766 53.8906 61.6276 53.9141 61.7891 53.9141C61.9089 53.9141 62.0339 53.9036 62.1641 53.8828C62.2995 53.8568 62.401 53.8359 62.4688 53.8203L62.4766 55C62.362 55.0365 62.2109 55.0703 62.0234 55.1016C61.8411 55.138 61.6198 55.1562 61.3594 55.1562C61.0052 55.1562 60.6797 55.0859 60.3828 54.9453C60.0859 54.8047 59.849 54.5703 59.6719 54.2422C59.5 53.9089 59.4141 53.4609 59.4141 52.8984V44.4922ZM69.1172 53.5547V49.2031C69.1172 48.8698 69.0495 48.5807 68.9141 48.3359C68.7839 48.0859 68.5859 47.8932 68.3203 47.7578C68.0547 47.6224 67.7266 47.5547 67.3359 47.5547C66.9714 47.5547 66.651 47.6172 66.375 47.7422C66.1042 47.8672 65.8906 48.0312 65.7344 48.2344C65.5833 48.4375 65.5078 48.6562 65.5078 48.8906H64.0625C64.0625 48.5885 64.1406 48.2891 64.2969 47.9922C64.4531 47.6953 64.6771 47.4271 64.9688 47.1875C65.2656 46.9427 65.6198 46.75 66.0312 46.6094C66.4479 46.4635 66.9115 46.3906 67.4219 46.3906C68.0365 46.3906 68.5781 46.4948 69.0469 46.7031C69.5208 46.9115 69.8906 47.2266 70.1562 47.6484C70.4271 48.0651 70.5625 48.5885 70.5625 49.2188V53.1562C70.5625 53.4375 70.5859 53.737 70.6328 54.0547C70.6849 54.3724 70.7604 54.6458 70.8594 54.875V55H69.3516C69.2786 54.8333 69.2214 54.612 69.1797 54.3359C69.138 54.0547 69.1172 53.7943 69.1172 53.5547ZM69.3672 49.875L69.3828 50.8906H67.9219C67.5104 50.8906 67.1432 50.9245 66.8203 50.9922C66.4974 51.0547 66.2266 51.151 66.0078 51.2812C65.7891 51.4115 65.6224 51.5755 65.5078 51.7734C65.3932 51.9661 65.3359 52.1927 65.3359 52.4531C65.3359 52.7188 65.3958 52.9609 65.5156 53.1797C65.6354 53.3984 65.8151 53.5729 66.0547 53.7031C66.2995 53.8281 66.599 53.8906 66.9531 53.8906C67.3958 53.8906 67.7865 53.7969 68.125 53.6094C68.4635 53.4219 68.7318 53.1927 68.9297 52.9219C69.1328 52.651 69.2422 52.388 69.2578 52.1328L69.875 52.8281C69.8385 53.0469 69.7396 53.2891 69.5781 53.5547C69.4167 53.8203 69.2005 54.0755 68.9297 54.3203C68.6641 54.5599 68.3464 54.7604 67.9766 54.9219C67.612 55.0781 67.2005 55.1562 66.7422 55.1562C66.1693 55.1562 65.6667 55.0443 65.2344 54.8203C64.8073 54.5964 64.474 54.2969 64.2344 53.9219C64 53.5417 63.8828 53.1172 63.8828 52.6484C63.8828 52.1953 63.9714 51.7969 64.1484 51.4531C64.3255 51.1042 64.5807 50.8151 64.9141 50.5859C65.2474 50.3516 65.6484 50.1745 66.1172 50.0547C66.5859 49.9349 67.1094 49.875 67.6875 49.875H69.3672ZM74.4062 43V55H72.9531V43H74.4062ZM85.6172 52.7578C85.6172 52.5495 85.5703 52.3568 85.4766 52.1797C85.388 51.9974 85.2031 51.8333 84.9219 51.6875C84.6458 51.5365 84.2292 51.4062 83.6719 51.2969C83.2031 51.1979 82.7786 51.0807 82.3984 50.9453C82.0234 50.8099 81.7031 50.6458 81.4375 50.4531C81.1771 50.2604 80.9766 50.0339 80.8359 49.7734C80.6953 49.513 80.625 49.2083 80.625 48.8594C80.625 48.526 80.6979 48.2109 80.8438 47.9141C80.9948 47.6172 81.2057 47.3542 81.4766 47.125C81.7526 46.8958 82.0833 46.7161 82.4688 46.5859C82.8542 46.4557 83.2839 46.3906 83.7578 46.3906C84.4349 46.3906 85.013 46.5104 85.4922 46.75C85.9714 46.9896 86.3385 47.3099 86.5938 47.7109C86.849 48.1068 86.9766 48.5469 86.9766 49.0312H85.5312C85.5312 48.7969 85.4609 48.5703 85.3203 48.3516C85.1849 48.1276 84.9844 47.9427 84.7188 47.7969C84.4583 47.651 84.138 47.5781 83.7578 47.5781C83.3568 47.5781 83.0312 47.6406 82.7812 47.7656C82.5365 47.8854 82.3568 48.0391 82.2422 48.2266C82.1328 48.4141 82.0781 48.612 82.0781 48.8203C82.0781 48.9766 82.1042 49.1172 82.1562 49.2422C82.2135 49.362 82.3125 49.474 82.4531 49.5781C82.5938 49.6771 82.7917 49.7708 83.0469 49.8594C83.3021 49.9479 83.6276 50.0365 84.0234 50.125C84.7161 50.2812 85.2865 50.4688 85.7344 50.6875C86.1823 50.9062 86.5156 51.1745 86.7344 51.4922C86.9531 51.8099 87.0625 52.1953 87.0625 52.6484C87.0625 53.0182 86.9844 53.3568 86.8281 53.6641C86.6771 53.9714 86.4557 54.237 86.1641 54.4609C85.8776 54.6797 85.5339 54.8516 85.1328 54.9766C84.737 55.0964 84.2917 55.1562 83.7969 55.1562C83.0521 55.1562 82.4219 55.0234 81.9062 54.7578C81.3906 54.4922 81 54.1484 80.7344 53.7266C80.4688 53.3047 80.3359 52.8594 80.3359 52.3906H81.7891C81.8099 52.7865 81.9245 53.1016 82.1328 53.3359C82.3411 53.5651 82.5964 53.7292 82.8984 53.8281C83.2005 53.9219 83.5 53.9688 83.7969 53.9688C84.1927 53.9688 84.5234 53.9167 84.7891 53.8125C85.0599 53.7083 85.2656 53.5651 85.4062 53.3828C85.5469 53.2005 85.6172 52.9922 85.6172 52.7578ZM88.5781 50.8672V50.6875C88.5781 50.0781 88.6667 49.513 88.8438 48.9922C89.0208 48.4661 89.276 48.0104 89.6094 47.625C89.9427 47.2344 90.3464 46.9323 90.8203 46.7188C91.2943 46.5 91.8255 46.3906 92.4141 46.3906C93.0078 46.3906 93.5417 46.5 94.0156 46.7188C94.4948 46.9323 94.901 47.2344 95.2344 47.625C95.5729 48.0104 95.8307 48.4661 96.0078 48.9922C96.1849 49.513 96.2734 50.0781 96.2734 50.6875V50.8672C96.2734 51.4766 96.1849 52.0417 96.0078 52.5625C95.8307 53.0833 95.5729 53.5391 95.2344 53.9297C94.901 54.3151 94.4974 54.6172 94.0234 54.8359C93.5547 55.0495 93.0234 55.1562 92.4297 55.1562C91.8359 55.1562 91.3021 55.0495 90.8281 54.8359C90.3542 54.6172 89.9479 54.3151 89.6094 53.9297C89.276 53.5391 89.0208 53.0833 88.8438 52.5625C88.6667 52.0417 88.5781 51.4766 88.5781 50.8672ZM90.0234 50.6875V50.8672C90.0234 51.2891 90.0729 51.6875 90.1719 52.0625C90.2708 52.4323 90.4193 52.7604 90.6172 53.0469C90.8203 53.3333 91.0729 53.5599 91.375 53.7266C91.6771 53.888 92.0286 53.9688 92.4297 53.9688C92.8255 53.9688 93.1719 53.888 93.4688 53.7266C93.7708 53.5599 94.0208 53.3333 94.2188 53.0469C94.4167 52.7604 94.5651 52.4323 94.6641 52.0625C94.7682 51.6875 94.8203 51.2891 94.8203 50.8672V50.6875C94.8203 50.2708 94.7682 49.8776 94.6641 49.5078C94.5651 49.1328 94.4141 48.8021 94.2109 48.5156C94.013 48.224 93.763 47.9948 93.4609 47.8281C93.1641 47.6615 92.8151 47.5781 92.4141 47.5781C92.0182 47.5781 91.6693 47.6615 91.3672 47.8281C91.0703 47.9948 90.8203 48.224 90.6172 48.5156C90.4193 48.8021 90.2708 49.1328 90.1719 49.5078C90.0729 49.8776 90.0234 50.2708 90.0234 50.6875ZM99.6562 43V55H98.2031V43H99.6562ZM107.148 53.0469V46.5469H108.602V55H107.219L107.148 53.0469ZM107.422 51.2656L108.023 51.25C108.023 51.8125 107.964 52.3333 107.844 52.8125C107.729 53.2865 107.542 53.6979 107.281 54.0469C107.021 54.3958 106.68 54.6693 106.258 54.8672C105.836 55.0599 105.323 55.1562 104.719 55.1562C104.307 55.1562 103.93 55.0964 103.586 54.9766C103.247 54.8568 102.956 54.6719 102.711 54.4219C102.466 54.1719 102.276 53.8464 102.141 53.4453C102.01 53.0443 101.945 52.5625 101.945 52V46.5469H103.391V52.0156C103.391 52.3958 103.432 52.7109 103.516 52.9609C103.604 53.2057 103.721 53.401 103.867 53.5469C104.018 53.6875 104.185 53.7865 104.367 53.8438C104.555 53.901 104.747 53.9297 104.945 53.9297C105.56 53.9297 106.047 53.8125 106.406 53.5781C106.766 53.3385 107.023 53.0182 107.18 52.6172C107.341 52.2109 107.422 51.7604 107.422 51.2656ZM114.344 46.5469V47.6562H109.773V46.5469H114.344ZM111.32 44.4922H112.766V52.9062C112.766 53.1927 112.81 53.4089 112.898 53.5547C112.987 53.7005 113.102 53.7969 113.242 53.8438C113.383 53.8906 113.534 53.9141 113.695 53.9141C113.815 53.9141 113.94 53.9036 114.07 53.8828C114.206 53.8568 114.307 53.8359 114.375 53.8203L114.383 55C114.268 55.0365 114.117 55.0703 113.93 55.1016C113.747 55.138 113.526 55.1562 113.266 55.1562C112.911 55.1562 112.586 55.0859 112.289 54.9453C111.992 54.8047 111.755 54.5703 111.578 54.2422C111.406 53.9089 111.32 53.4609 111.32 52.8984V44.4922ZM117.609 46.5469V55H116.156V46.5469H117.609ZM116.047 44.3047C116.047 44.0703 116.117 43.8724 116.258 43.7109C116.404 43.5495 116.617 43.4688 116.898 43.4688C117.174 43.4688 117.385 43.5495 117.531 43.7109C117.682 43.8724 117.758 44.0703 117.758 44.3047C117.758 44.5286 117.682 44.7214 117.531 44.8828C117.385 45.0391 117.174 45.1172 116.898 45.1172C116.617 45.1172 116.404 45.0391 116.258 44.8828C116.117 44.7214 116.047 44.5286 116.047 44.3047ZM119.547 50.8672V50.6875C119.547 50.0781 119.635 49.513 119.812 48.9922C119.99 48.4661 120.245 48.0104 120.578 47.625C120.911 47.2344 121.315 46.9323 121.789 46.7188C122.263 46.5 122.794 46.3906 123.383 46.3906C123.977 46.3906 124.51 46.5 124.984 46.7188C125.464 46.9323 125.87 47.2344 126.203 47.625C126.542 48.0104 126.799 48.4661 126.977 48.9922C127.154 49.513 127.242 50.0781 127.242 50.6875V50.8672C127.242 51.4766 127.154 52.0417 126.977 52.5625C126.799 53.0833 126.542 53.5391 126.203 53.9297C125.87 54.3151 125.466 54.6172 124.992 54.8359C124.523 55.0495 123.992 55.1562 123.398 55.1562C122.805 55.1562 122.271 55.0495 121.797 54.8359C121.323 54.6172 120.917 54.3151 120.578 53.9297C120.245 53.5391 119.99 53.0833 119.812 52.5625C119.635 52.0417 119.547 51.4766 119.547 50.8672ZM120.992 50.6875V50.8672C120.992 51.2891 121.042 51.6875 121.141 52.0625C121.24 52.4323 121.388 52.7604 121.586 53.0469C121.789 53.3333 122.042 53.5599 122.344 53.7266C122.646 53.888 122.997 53.9688 123.398 53.9688C123.794 53.9688 124.141 53.888 124.438 53.7266C124.74 53.5599 124.99 53.3333 125.188 53.0469C125.385 52.7604 125.534 52.4323 125.633 52.0625C125.737 51.6875 125.789 51.2891 125.789 50.8672V50.6875C125.789 50.2708 125.737 49.8776 125.633 49.5078C125.534 49.1328 125.383 48.8021 125.18 48.5156C124.982 48.224 124.732 47.9948 124.43 47.8281C124.133 47.6615 123.784 47.5781 123.383 47.5781C122.987 47.5781 122.638 47.6615 122.336 47.8281C122.039 47.9948 121.789 48.224 121.586 48.5156C121.388 48.8021 121.24 49.1328 121.141 49.5078C121.042 49.8776 120.992 50.2708 120.992 50.6875ZM130.5 48.3516V55H129.055V46.5469H130.422L130.5 48.3516ZM130.156 50.4531L129.555 50.4297C129.56 49.8516 129.646 49.3177 129.812 48.8281C129.979 48.3333 130.214 47.9036 130.516 47.5391C130.818 47.1745 131.177 46.8932 131.594 46.6953C132.016 46.4922 132.482 46.3906 132.992 46.3906C133.409 46.3906 133.784 46.4479 134.117 46.5625C134.451 46.6719 134.734 46.849 134.969 47.0938C135.208 47.3385 135.391 47.6562 135.516 48.0469C135.641 48.4323 135.703 48.9036 135.703 49.4609V55H134.25V49.4453C134.25 49.0026 134.185 48.6484 134.055 48.3828C133.924 48.112 133.734 47.9167 133.484 47.7969C133.234 47.6719 132.927 47.6094 132.562 47.6094C132.203 47.6094 131.875 47.6849 131.578 47.8359C131.286 47.987 131.034 48.1953 130.82 48.4609C130.612 48.7266 130.448 49.0312 130.328 49.375C130.214 49.7135 130.156 50.0729 130.156 50.4531ZM142.82 52.7578C142.82 52.5495 142.773 52.3568 142.68 52.1797C142.591 51.9974 142.406 51.8333 142.125 51.6875C141.849 51.5365 141.432 51.4062 140.875 51.2969C140.406 51.1979 139.982 51.0807 139.602 50.9453C139.227 50.8099 138.906 50.6458 138.641 50.4531C138.38 50.2604 138.18 50.0339 138.039 49.7734C137.898 49.513 137.828 49.2083 137.828 48.8594C137.828 48.526 137.901 48.2109 138.047 47.9141C138.198 47.6172 138.409 47.3542 138.68 47.125C138.956 46.8958 139.286 46.7161 139.672 46.5859C140.057 46.4557 140.487 46.3906 140.961 46.3906C141.638 46.3906 142.216 46.5104 142.695 46.75C143.174 46.9896 143.542 47.3099 143.797 47.7109C144.052 48.1068 144.18 48.5469 144.18 49.0312H142.734C142.734 48.7969 142.664 48.5703 142.523 48.3516C142.388 48.1276 142.188 47.9427 141.922 47.7969C141.661 47.651 141.341 47.5781 140.961 47.5781C140.56 47.5781 140.234 47.6406 139.984 47.7656C139.74 47.8854 139.56 48.0391 139.445 48.2266C139.336 48.4141 139.281 48.612 139.281 48.8203C139.281 48.9766 139.307 49.1172 139.359 49.2422C139.417 49.362 139.516 49.474 139.656 49.5781C139.797 49.6771 139.995 49.7708 140.25 49.8594C140.505 49.9479 140.831 50.0365 141.227 50.125C141.919 50.2812 142.49 50.4688 142.938 50.6875C143.385 50.9062 143.719 51.1745 143.938 51.4922C144.156 51.8099 144.266 52.1953 144.266 52.6484C144.266 53.0182 144.188 53.3568 144.031 53.6641C143.88 53.9714 143.659 54.237 143.367 54.4609C143.081 54.6797 142.737 54.8516 142.336 54.9766C141.94 55.0964 141.495 55.1562 141 55.1562C140.255 55.1562 139.625 55.0234 139.109 54.7578C138.594 54.4922 138.203 54.1484 137.938 53.7266C137.672 53.3047 137.539 52.8594 137.539 52.3906H138.992C139.013 52.7865 139.128 53.1016 139.336 53.3359C139.544 53.5651 139.799 53.7292 140.102 53.8281C140.404 53.9219 140.703 53.9688 141 53.9688C141.396 53.9688 141.727 53.9167 141.992 53.8125C142.263 53.7083 142.469 53.5651 142.609 53.3828C142.75 53.2005 142.82 52.9922 142.82 52.7578Z" fill="#1E1E1E"/>
</svg>
