<svg width="33" height="32" viewBox="0 0 33 32" fill="none" xmlns="http://www.w3.org/2000/svg">
<path d="M4.16675 16C4.16675 12.134 7.30076 9 11.1667 9C11.719 9 12.1667 8.55228 12.1667 8C12.1667 7.44772 11.719 7 11.1667 7C6.19619 7 2.16675 11.0294 2.16675 16C2.16675 20.9705 6.19619 25 11.1667 25C16.1373 25 20.1667 20.9705 20.1667 16C20.1667 15.4477 19.719 15 19.1667 15C18.6145 15 18.1667 15.4477 18.1667 16C18.1667 19.866 15.0327 23 11.1667 23C7.30076 23 4.16675 19.866 4.16675 16Z" fill="#771100"/>
<path d="M28.8333 16C28.8333 19.866 25.6993 23 21.8333 23C21.281 23 20.8333 23.4477 20.8333 24C20.8333 24.5523 21.281 25 21.8333 25C26.8038 25 30.8333 20.9705 30.8333 16C30.8333 11.0294 26.8038 7 21.8333 7C16.8627 7 12.8333 11.0294 12.8333 16C12.8333 16.5523 13.281 17 13.8333 17C14.3855 17 14.8333 16.5523 14.8333 16C14.8333 12.134 17.9673 9 21.8333 9C25.6993 9 28.8333 12.134 28.8333 16Z" fill="#771100"/>
</svg>
