<svg width="40" height="33" viewBox="0 0 40 33" fill="none" xmlns="http://www.w3.org/2000/svg">
<path d="M30.5 12.5001H21V16.0001C21 18.4814 18.9812 20.5001 16.5 20.5001C14.0187 20.5001 12 18.4814 12 16.0001V8.40011L7.94371 10.8376C6.73746 11.5564 5.99996 12.8626 5.99996 14.2626V17.2189L0.999961 20.1064C0.0437106 20.6564 -0.287539 21.8814 0.268711 22.8376L5.26871 31.5001C5.81871 32.4564 7.04371 32.7814 7.99996 32.2314L14.4625 28.5001H23C25.2062 28.5001 27 26.7064 27 24.5001H28C29.1062 24.5001 30 23.6064 30 22.5001V18.5001H30.5C31.3312 18.5001 32 17.8314 32 17.0001V14.0001C32 13.1689 31.3312 12.5001 30.5 12.5001ZM39.7312 10.1626L34.7312 1.50011C34.1812 0.543863 32.9562 0.218863 32 0.768863L25.5375 4.50011H19.15C18.4 4.50011 17.6687 4.71261 17.0312 5.10636L14.9375 6.41261C14.35 6.77511 14 7.41886 14 8.10636V16.0001C14 17.3814 15.1187 18.5001 16.5 18.5001C17.8812 18.5001 19 17.3814 19 16.0001V10.5001H30.5C32.4312 10.5001 34 12.0689 34 14.0001V15.7814L39 12.8939C39.9562 12.3376 40.2812 11.1189 39.7312 10.1626Z" fill="white"/>
</svg>
