<svg width="40" height="41" viewBox="0 0 40 41" fill="none" xmlns="http://www.w3.org/2000/svg">
<g clip-path="url(#clip0_357_11095)">
<path d="M19.9264 12.4561C22.506 12.4561 24.5972 10.3649 24.5972 7.78529C24.5972 5.20568 22.506 3.1145 19.9264 3.1145C17.3468 3.1145 15.2556 5.20568 15.2556 7.78529C15.2556 10.3649 17.3468 12.4561 19.9264 12.4561Z" fill="white"/>
<path d="M36.2768 20.6356L31.9236 19.7275C30.4405 19.4168 28.9762 20.0966 28.2021 21.305C27.4502 20.9189 26.6417 20.5858 25.7817 20.3094V17.7208C25.7835 15.7622 24.1801 14.1606 22.2284 14.1606H17.7774C15.8154 14.1606 14.2189 15.7622 14.2189 17.7208V20.3231C13.3675 20.5943 12.5676 20.9274 11.8106 21.3153C11.0364 20.1017 9.57044 19.4168 8.08558 19.7275L3.7289 20.6356C1.81662 21.0355 0.575517 22.9324 0.975479 24.8515L2.06897 30.075C2.46551 31.9889 4.36401 33.2301 6.27804 32.8301L7.65642 32.5417C8.34644 33.5613 9.30091 34.4969 10.5231 35.2968C13.0687 36.9653 16.4315 37.8854 20.0002 37.8854C25.4607 37.8854 30.1641 35.6899 32.3304 32.5365L33.7311 32.8301C35.6434 33.2283 37.5419 31.9889 37.9384 30.075L39.0336 24.8515C39.4318 22.9324 38.1907 21.0355 36.2768 20.6356ZM19.9985 36.1019C16.7748 36.1019 13.7536 35.2899 11.4997 33.8051C10.7273 33.3004 10.087 32.7391 9.57378 32.1383L10.6295 31.9168C12.5452 31.5186 13.7863 29.6218 13.3863 27.7061L12.4061 23.0095C12.9778 22.7023 13.5786 22.4328 14.2171 22.2028V23.0594C14.2171 25.0145 15.817 26.6161 17.7755 26.6161H22.2266C24.1801 26.6161 25.78 25.0129 25.78 23.0594V22.1581C26.4305 22.3899 27.0416 22.656 27.6081 22.9581L26.6142 27.7079C26.2176 29.6236 27.457 31.5204 29.3727 31.9186L30.4386 32.1417C28.4509 34.4952 24.5182 36.1019 19.9985 36.1019Z" fill="white"/>
<path d="M35.3292 18.5962C37.9088 18.5962 40 16.505 40 13.9254C40 11.3458 37.9088 9.25464 35.3292 9.25464C32.7496 9.25464 30.6584 11.3458 30.6584 13.9254C30.6584 16.505 32.7496 18.5962 35.3292 18.5962Z" fill="white"/>
<path d="M5.62912 18.4983C8.1559 17.9696 9.76952 15.4926 9.24764 12.9675C8.7155 10.4442 6.24363 8.82373 3.7151 9.35245C1.19174 9.87942 -0.428714 12.3547 0.100006 14.8798C0.627055 17.4066 3.10235 19.0254 5.62912 18.4983Z" fill="white"/>
</g>
<defs>
<clipPath id="clip0_357_11095">
<rect width="40" height="40" fill="white" transform="translate(0 0.5)"/>
</clipPath>
</defs>
</svg>
