<svg width="40" height="41" viewBox="0 0 40 41" fill="none" xmlns="http://www.w3.org/2000/svg">
<g clip-path="url(#clip0_357_11123)">
<path d="M25.4711 33.7271H14.5286V36.3357H25.4711V33.7271Z" fill="white"/>
<path d="M23.1817 37.8914H16.8191V40.5H23.1817V37.8914Z" fill="white"/>
<path d="M20.4313 18.7668H19.5679V32.1712H20.4313V18.7668Z" fill="white"/>
<path d="M15.3534 12.9465C14.4678 12.9465 13.7473 13.6671 13.7473 14.5526C13.7473 15.4382 14.4678 16.1587 15.3534 16.1587H16.9595V14.5526C16.9594 13.6669 16.239 12.9465 15.3534 12.9465Z" fill="white"/>
<path d="M24.6464 12.9465C23.7608 12.9465 23.0403 13.6671 23.0403 14.5526V16.1587H24.6464C25.532 16.1587 26.2525 15.4383 26.2525 14.5526C26.2525 13.6671 25.5321 12.9465 24.6464 12.9465Z" fill="white"/>
<path d="M20 0.5C12.1938 0.5 5.84302 6.85078 5.84302 14.657C5.84302 17.3942 6.62606 20.0507 8.10739 22.3392C9.39653 24.3307 11.1544 25.9598 13.2244 27.0891V32.1714H16.9596V18.7674H15.3535C13.0294 18.7674 11.1387 16.8766 11.1387 14.5527C11.1387 12.2286 13.0294 10.3379 15.3535 10.3379C17.6775 10.3379 19.5683 12.2286 19.5683 14.5527V16.1588H20.4317V14.5527C20.4317 12.2286 22.3224 10.3379 24.6465 10.3379C26.9705 10.3379 28.8612 12.2286 28.8612 14.5527C28.8612 16.8766 26.9705 18.7674 24.6465 18.7674H23.0404V32.1714H26.7755V27.0891C28.8455 25.9598 30.6034 24.3307 31.8926 22.3392C33.3739 20.0507 34.1569 17.3943 34.1569 14.657C34.1569 6.85078 27.8061 0.5 20 0.5Z" fill="white"/>
</g>
<defs>
<clipPath id="clip0_357_11123">
<rect width="40" height="40" fill="white" transform="translate(0 0.5)"/>
</clipPath>
</defs>
</svg>
