<svg width="31" height="32" viewBox="0 0 31 32" fill="none" xmlns="http://www.w3.org/2000/svg">
<path d="M15.5002 7.22986C10.9355 7.22986 7.22168 10.9437 7.22168 15.5084C7.22168 17.3766 7.83424 19.1417 8.9923 20.6122C9.22089 20.9033 9.46108 21.1819 9.71539 21.4768L9.72936 21.4931C10.5074 22.3957 11.3118 23.3293 11.6122 24.4287C11.6801 24.6806 11.6897 25.1637 11.6858 25.5358V26.1682C11.6858 26.7469 12.155 27.2161 12.7338 27.2161H18.2211C18.7999 27.2161 19.2691 26.7469 19.2691 26.1682V25.5284C19.2656 25.0424 19.2907 24.6878 19.3415 24.5038C19.6436 23.4116 20.535 22.363 21.3287 21.4296L21.3629 21.3894C21.5919 21.1203 21.8083 20.8661 22.0054 20.6156C23.1651 19.1442 23.7781 17.3782 23.7781 15.5084C23.7779 10.9437 20.0645 7.22986 15.5002 7.22986ZM20.3584 19.3192C20.1858 19.5387 19.9824 19.7778 19.7669 20.0308L19.7247 20.0804C18.7976 21.1708 17.7469 22.4067 17.321 23.9462C17.2608 24.1648 17.1939 24.4917 17.1768 25.1202H13.7798C13.7652 24.4528 13.6972 24.1104 13.635 23.8799C13.2088 22.32 12.1599 21.1028 11.3169 20.1246L11.3028 20.1081C11.0646 19.8318 10.8396 19.5708 10.6397 19.3165C9.77477 18.2183 9.31758 16.9013 9.31758 15.5084C9.31758 12.0993 12.0912 9.32576 15.5002 9.32576C18.9089 9.32576 21.682 12.0993 21.682 15.5084C21.682 16.9029 21.2246 18.2202 20.3584 19.3192Z" fill="#771100"/>
<path d="M18.221 27.5137H12.7337C12.155 27.5137 11.6858 27.9829 11.6858 28.5616C11.6858 29.1404 12.155 29.6096 12.7337 29.6096H18.2211C18.7999 29.6096 19.2691 29.1404 19.2691 28.5616C19.2691 27.9829 18.7997 27.5137 18.221 27.5137Z" fill="#771100"/>
<path d="M16.8494 29.9041H14.1058C13.5271 29.9041 13.0579 30.3733 13.0579 30.952C13.0579 31.5308 13.5271 32 14.1058 32H16.8494C17.4281 32 17.8973 31.5308 17.8973 30.952C17.8973 30.3733 17.4281 29.9041 16.8494 29.9041Z" fill="#771100"/>
<path d="M29.9605 14.4604H26.3453C25.7666 14.4604 25.2974 14.9297 25.2974 15.5084C25.2974 16.0872 25.7666 16.5564 26.3453 16.5564H29.9605C30.5392 16.5564 31.0084 16.0872 31.0084 15.5084C31.0084 14.9297 30.5392 14.4604 29.9605 14.4604Z" fill="#771100"/>
<path d="M5.70294 15.5084C5.70294 14.9297 5.23373 14.4604 4.65498 14.4604H1.03941C0.460658 14.4604 -0.00854492 14.9297 -0.00854492 15.5084C-0.00854492 16.0872 0.460658 16.5564 1.03941 16.5564H4.65498C5.23373 16.5564 5.70294 16.0872 5.70294 15.5084Z" fill="#771100"/>
<path d="M15.5001 5.71218C16.0789 5.71218 16.5481 5.24298 16.5481 4.66423V1.04795C16.5481 0.469203 16.0789 0 15.5001 0C14.9214 0 14.4521 0.469203 14.4521 1.04795V4.66423C14.4521 5.24298 14.9214 5.71218 15.5001 5.71218Z" fill="#771100"/>
<path d="M23.9092 22.4358C23.5 22.0265 22.8365 22.0264 22.4271 22.4357C22.0179 22.8449 22.0177 23.5083 22.427 23.9177L24.9834 26.4749C25.1881 26.6796 25.4563 26.7819 25.7245 26.7819C25.9927 26.7819 26.2608 26.6796 26.4655 26.475C26.8748 26.0658 26.8749 25.4023 26.4657 24.9929L23.9092 22.4358Z" fill="#771100"/>
<path d="M7.08957 8.5803C7.29427 8.785 7.5624 8.88742 7.83068 8.88742C8.09882 8.88742 8.36695 8.78514 8.57151 8.58058C8.98091 8.17132 8.98091 7.5079 8.57179 7.09864L6.01632 4.54219C5.60706 4.13279 4.94364 4.13279 4.53438 4.54191C4.12498 4.95117 4.12498 5.6146 4.5341 6.02386L7.08957 8.5803Z" fill="#771100"/>
<path d="M7.09051 22.4359L4.53393 24.993C4.12467 25.4023 4.12481 26.0658 4.53407 26.475C4.73863 26.6795 5.0069 26.7818 5.27504 26.7818C5.54317 26.7818 5.81145 26.6795 6.01615 26.4748L8.57274 23.9177C8.982 23.5084 8.98186 22.8448 8.5726 22.4357C8.16334 22.0266 7.49977 22.0266 7.09051 22.4359Z" fill="#771100"/>
<path d="M23.1687 8.88739C23.4368 8.88739 23.7051 8.78511 23.9098 8.58041L26.4657 6.0241C26.875 5.61484 26.8748 4.95128 26.4656 4.54216C26.0563 4.1329 25.3927 4.1329 24.9836 4.5423L22.4277 7.0986C22.0185 7.50786 22.0186 8.17143 22.4279 8.58055C22.6323 8.78525 22.9004 8.88739 23.1687 8.88739Z" fill="#771100"/>
</svg>
