<svg width="24" height="25" viewBox="0 0 24 25" fill="none" xmlns="http://www.w3.org/2000/svg">
<g clip-path="url(#clip0_396_4241)">
<path fill-rule="evenodd" clip-rule="evenodd" d="M12 11.75C10.7572 11.75 9.75 10.7428 9.75 9.5C9.75 8.25725 10.7572 7.25 12 7.25C13.2428 7.25 14.25 8.25725 14.25 9.5C14.25 10.7428 13.2428 11.75 12 11.75ZM12 5.75C9.92925 5.75 8.25 7.4285 8.25 9.5C8.25 11.5715 9.92925 13.25 12 13.25C14.0708 13.25 15.75 11.5715 15.75 9.5C15.75 7.4285 14.0708 5.75 12 5.75ZM12 22.25C10.7527 22.2568 4.5 12.6357 4.5 9.5C4.5 5.3585 7.85775 2 12 2C16.1423 2 19.5 5.3585 19.5 9.5C19.5 12.5938 13.2277 22.2568 12 22.25ZM12 0.5C7.02975 0.5 3 4.52975 3 9.5C3 13.2635 10.5037 24.5082 12 24.5C13.473 24.5082 21 13.2125 21 9.5C21 4.52975 16.9703 0.5 12 0.5Z" fill="#771100"/>
</g>
<defs>
<clipPath id="clip0_396_4241">
<rect width="24" height="24" fill="white" transform="translate(0 0.5)"/>
</clipPath>
</defs>
</svg>
