<svg width="24" height="25" viewBox="0 0 24 25" fill="none" xmlns="http://www.w3.org/2000/svg">
<path d="M17.7068 12.793C17.3158 12.402 16.6838 12.402 16.2928 12.793L14.6988 14.387C13.9598 14.167 12.5808 13.667 11.7068 12.793C10.8328 11.919 10.3328 10.54 10.1128 9.80101L11.7068 8.20701C12.0978 7.81601 12.0978 7.18401 11.7068 6.79301L7.70685 2.79301C7.31585 2.40201 6.68385 2.40201 6.29285 2.79301L3.58085 5.50501C3.20085 5.88501 2.98685 6.40701 2.99485 6.94001C3.01785 8.36401 3.39485 13.31 7.29285 17.208C11.1908 21.106 16.1368 21.482 17.5618 21.506C17.5668 21.506 17.5848 21.506 17.5898 21.506C18.1178 21.506 18.6168 21.298 18.9948 20.92L21.7068 18.208C22.0978 17.817 22.0978 17.185 21.7068 16.794L17.7068 12.793ZM17.5798 19.505C16.3318 19.484 12.0618 19.149 8.70685 15.793C5.34085 12.427 5.01485 8.14201 4.99485 6.91901L6.99985 4.91401L9.58585 7.50001L8.29285 8.79301C8.05385 9.03101 7.95185 9.37501 8.02085 9.70501C8.04485 9.82001 8.63185 12.547 10.2918 14.207C11.9518 15.867 14.6788 16.454 14.7938 16.478C15.1268 16.549 15.4678 16.446 15.7058 16.207L16.9998 14.914L19.5858 17.5L17.5798 19.505Z" fill="#771100"/>
</svg>
