<svg width="22" height="21" viewBox="0 0 22 21" fill="none" xmlns="http://www.w3.org/2000/svg">
<path d="M0.833252 6.31071C0.833252 6.86299 1.28097 7.31071 1.83325 7.31071C2.38553 7.31071 2.83325 6.86299 2.83325 6.31071H0.833252ZM2.83325 1.33337C2.83325 0.781094 2.38553 0.333374 1.83325 0.333374C1.28097 0.333374 0.833252 0.781094 0.833252 1.33337H2.83325ZM1.83325 0.333374C1.28097 0.333374 0.833252 0.781094 0.833252 1.33337C0.833252 1.88565 1.28097 2.33337 1.83325 2.33337V0.333374ZM6.81058 2.33337C7.36286 2.33337 7.81058 1.88565 7.81058 1.33337C7.81058 0.781094 7.36286 0.333374 6.81058 0.333374V2.33337ZM2.54036 0.626267C2.14984 0.235747 1.51666 0.235747 1.12615 0.626267C0.735625 1.01679 0.735625 1.64996 1.12615 2.04048L2.54036 0.626267ZM7.79281 8.70711C8.18338 9.09764 8.81645 9.09764 9.20698 8.70711C9.59752 8.31657 9.59752 7.68351 9.20698 7.29293L7.79281 8.70711ZM15.5226 19C14.9703 19 14.5226 19.4478 14.5226 20C14.5226 20.5523 14.9703 21 15.5226 21V19ZM20.4999 21C21.0522 21 21.4999 20.5523 21.4999 20C21.4999 19.4478 21.0522 19 20.4999 19V21ZM19.4999 20C19.4999 20.5523 19.9476 21 20.4999 21C21.0522 21 21.4999 20.5523 21.4999 20H19.4999ZM21.4999 15.0227C21.4999 14.4704 21.0522 14.0227 20.4999 14.0227C19.9476 14.0227 19.4999 14.4704 19.4999 15.0227H21.4999ZM19.7928 20.7071C20.1834 21.0976 20.8165 21.0976 21.207 20.7071C21.5975 20.3166 21.5975 19.6835 21.207 19.293L19.7928 20.7071ZM14.5403 12.6263C14.1498 12.2358 13.5167 12.2358 13.1262 12.6263C12.7357 13.0168 12.7357 13.6499 13.1262 14.0404L14.5403 12.6263ZM2.83325 15.0227C2.83325 14.4704 2.38553 14.0227 1.83325 14.0227C1.28097 14.0227 0.833252 14.4704 0.833252 15.0227H2.83325ZM0.833252 20C0.833252 20.5523 1.28097 21 1.83325 21C2.38553 21 2.83325 20.5523 2.83325 20H0.833252ZM1.83325 19C1.28097 19 0.833252 19.4478 0.833252 20C0.833252 20.5523 1.28097 21 1.83325 21V19ZM6.81058 21C7.36286 21 7.81058 20.5523 7.81058 20C7.81058 19.4478 7.36286 19 6.81058 19V21ZM1.12615 19.293C0.735625 19.6835 0.735625 20.3166 1.12615 20.7071C1.51666 21.0976 2.14984 21.0976 2.54036 20.7071L1.12615 19.293ZM9.20698 14.0404C9.59752 13.6499 9.59752 13.0168 9.20698 12.6263C8.81645 12.2358 8.18338 12.2358 7.79281 12.6263L9.20698 14.0404ZM15.5226 0.333374C14.9703 0.333374 14.5226 0.781094 14.5226 1.33337C14.5226 1.88565 14.9703 2.33337 15.5226 2.33337V0.333374ZM20.4999 2.33337C21.0522 2.33337 21.4999 1.88565 21.4999 1.33337C21.4999 0.781094 21.0522 0.333374 20.4999 0.333374V2.33337ZM21.4999 1.33337C21.4999 0.781094 21.0522 0.333374 20.4999 0.333374C19.9476 0.333374 19.4999 0.781094 19.4999 1.33337H21.4999ZM19.4999 6.31071C19.4999 6.86299 19.9476 7.31071 20.4999 7.31071C21.0522 7.31071 21.4999 6.86299 21.4999 6.31071H19.4999ZM21.207 2.04048C21.5975 1.64996 21.5975 1.01679 21.207 0.626267C20.8165 0.235747 20.1834 0.235747 19.7928 0.626267L21.207 2.04048ZM13.1262 7.29293C12.7357 7.68351 12.7357 8.31657 13.1262 8.70711C13.5167 9.09764 14.1498 9.09764 14.5403 8.70711L13.1262 7.29293ZM2.83325 6.31071V1.33337H0.833252V6.31071H2.83325ZM1.83325 2.33337H6.81058V0.333374H1.83325V2.33337ZM1.12615 2.04048L7.79281 8.70711L9.20698 7.29293L2.54036 0.626267L1.12615 2.04048ZM15.5226 21H20.4999V19H15.5226V21ZM21.4999 20V15.0227H19.4999V20H21.4999ZM21.207 19.293L14.5403 12.6263L13.1262 14.0404L19.7928 20.7071L21.207 19.293ZM0.833252 15.0227V20H2.83325V15.0227H0.833252ZM1.83325 21H6.81058V19H1.83325V21ZM2.54036 20.7071L9.20698 14.0404L7.79281 12.6263L1.12615 19.293L2.54036 20.7071ZM15.5226 2.33337H20.4999V0.333374H15.5226V2.33337ZM19.4999 1.33337V6.31071H21.4999V1.33337H19.4999ZM19.7928 0.626267L13.1262 7.29293L14.5403 8.70711L21.207 2.04048L19.7928 0.626267Z" fill="#771100"/>
</svg>
