<svg xmlns="http://www.w3.org/2000/svg" width="100" height="100" viewBox="0 0 100 100">
  <defs>
    <linearGradient id="gradient" x1="0%" y1="0%" x2="100%" y2="100%">
      <stop offset="0%" stop-color="#4299e1" />
      <stop offset="100%" stop-color="#3182ce" />
    </linearGradient>
  </defs>
  <rect x="25" y="5" width="50" height="90" rx="8" ry="8" fill="white" stroke="#4299e1" stroke-width="3"/>
  <rect x="30" y="15" width="40" height="60" rx="2" ry="2" fill="#ebf8ff"/>
  <circle cx="50" cy="85" r="5" fill="#4299e1"/>
  <g transform="translate(36, 24)">
    <circle cx="14" cy="14" r="14" fill="url(#gradient)" opacity="0.8"/>
    <path d="M14,5 C9.02943725,5 5,9.02943725 5,14 C5,18.9705627 9.02943725,23 14,23 C18.9705627,23 23,18.9705627 23,14 C23,9.02943725 18.9705627,5 14,5 Z M14,21 C10.1340068,21 7,17.8659932 7,14 C7,10.1340068 10.1340068,7 14,7 C17.8659932,7 21,10.1340068 21,14 C21,17.8659932 17.8659932,21 14,21 Z" fill="white"/>
    <path d="M14,9 L14,14 L18,18" stroke="white" stroke-width="2" stroke-linecap="round" stroke-linejoin="round" fill="none"/>
  </g>
</svg> 