<svg width="143" height="44" viewBox="0 0 143 44" fill="none" xmlns="http://www.w3.org/2000/svg">
<g clip-path="url(#clip0_223_285)">
<path d="M31.75 3.5H0.75V40.5H31.75V3.5Z" fill="#A21419"/>
<path d="M31.75 3.5H0.75V40.5H31.75V3.5Z" stroke="#A21419"/>
<path d="M22.7319 27.6436V30.5H13.2715V27.6436H22.7319ZM14.4678 12.7266V30.5H10.8057V12.7266H14.4678ZM21.499 19.9653V22.7485H13.2715V19.9653H21.499ZM22.7197 12.7266V15.5952H13.2715V12.7266H22.7197Z" fill="white"/>
<mask id="mask0_223_285" style="mask-type:luminance" maskUnits="userSpaceOnUse" x="9" y="11" width="15" height="21">
<path d="M23.75 11.5H9.75V31.5H23.75V11.5Z" fill="white"/>
<path d="M22.7319 27.6436V30.5H13.2715V27.6436H22.7319ZM14.4678 12.7266V30.5H10.8057V12.7266H14.4678ZM21.499 19.9653V22.7485H13.2715V19.9653H21.499ZM22.7197 12.7266V15.5952H13.2715V12.7266H22.7197Z" fill="black"/>
</mask>
<g mask="url(#mask0_223_285)">
<path d="M22.7319 27.6436H23.7319V26.6436H22.7319V27.6436ZM22.7319 30.5V31.5H23.7319V30.5H22.7319ZM13.2715 30.5H12.2715V31.5H13.2715V30.5ZM13.2715 27.6436V26.6436H12.2715V27.6436H13.2715ZM14.4678 12.7266H15.4678V11.7266H14.4678V12.7266ZM14.4678 30.5V31.5H15.4678V30.5H14.4678ZM10.8057 30.5H9.80566V31.5H10.8057V30.5ZM10.8057 12.7266V11.7266H9.80566V12.7266H10.8057ZM21.499 19.9653H22.499V18.9653H21.499V19.9653ZM21.499 22.7485V23.7485H22.499V22.7485H21.499ZM13.2715 22.7485H12.2715V23.7485H13.2715V22.7485ZM13.2715 19.9653V18.9653H12.2715V19.9653H13.2715ZM22.7197 12.7266H23.7197V11.7266H22.7197V12.7266ZM22.7197 15.5952V16.5952H23.7197V15.5952H22.7197ZM13.2715 15.5952H12.2715V16.5952H13.2715V15.5952ZM13.2715 12.7266V11.7266H12.2715V12.7266H13.2715ZM21.7319 27.6436V30.5H23.7319V27.6436H21.7319ZM22.7319 29.5H13.2715V31.5H22.7319V29.5ZM14.2715 30.5V27.6436H12.2715V30.5H14.2715ZM13.2715 28.6436H22.7319V26.6436H13.2715V28.6436ZM13.4678 12.7266V30.5H15.4678V12.7266H13.4678ZM14.4678 29.5H10.8057V31.5H14.4678V29.5ZM11.8057 30.5V12.7266H9.80566V30.5H11.8057ZM10.8057 13.7266H14.4678V11.7266H10.8057V13.7266ZM20.499 19.9653V22.7485H22.499V19.9653H20.499ZM21.499 21.7485H13.2715V23.7485H21.499V21.7485ZM14.2715 22.7485V19.9653H12.2715V22.7485H14.2715ZM13.2715 20.9653H21.499V18.9653H13.2715V20.9653ZM21.7197 12.7266V15.5952H23.7197V12.7266H21.7197ZM22.7197 14.5952H13.2715V16.5952H22.7197V14.5952ZM14.2715 15.5952V12.7266H12.2715V15.5952H14.2715ZM13.2715 13.7266H22.7197V11.7266H13.2715V13.7266Z" fill="#A21419"/>
</g>
<path d="M32.25 3H64.25V41H32.25V3Z" fill="white"/>
<mask id="mask1_223_285" style="mask-type:luminance" maskUnits="userSpaceOnUse" x="32" y="3" width="33" height="38">
<path d="M32.25 3H64.25V41H32.25V3Z" fill="white"/>
</mask>
<g mask="url(#mask1_223_285)">
<path d="M64.25 3H67.25V0H64.25V3ZM64.25 41V44H67.25V41H64.25ZM32.25 6H64.25V0H32.25V6ZM61.25 3V41H67.25V3H61.25ZM64.25 38H32.25V44H64.25V38Z" fill="#A21419"/>
</g>
<path d="M51.6396 24.604H55.2896C55.2163 25.8003 54.8867 26.8623 54.3008 27.79C53.723 28.7178 52.9132 29.4421 51.8716 29.9629C50.8381 30.4837 49.5929 30.7441 48.1362 30.7441C46.9969 30.7441 45.9756 30.5488 45.0723 30.1582C44.1689 29.7594 43.3958 29.1898 42.7529 28.4492C42.1182 27.7087 41.634 26.8135 41.3003 25.7637C40.9666 24.7139 40.7998 23.5379 40.7998 22.2358V21.0029C40.7998 19.7008 40.9707 18.5249 41.3125 17.4751C41.6624 16.4172 42.1589 15.5179 42.8018 14.7773C43.4528 14.0368 44.23 13.4671 45.1333 13.0684C46.0366 12.6696 47.0457 12.4702 48.1606 12.4702C49.6418 12.4702 50.891 12.7388 51.9082 13.2759C52.9336 13.813 53.7271 14.5535 54.2886 15.4976C54.8582 16.4416 55.2 17.5158 55.314 18.7202H51.6519C51.6112 18.0041 51.4688 17.3978 51.2246 16.9014C50.9805 16.3968 50.6102 16.0184 50.1138 15.7661C49.6255 15.5057 48.9744 15.3755 48.1606 15.3755C47.5503 15.3755 47.0173 15.4894 46.5615 15.7173C46.1058 15.9451 45.7233 16.291 45.4141 16.7549C45.1048 17.2188 44.8729 17.8047 44.7183 18.5127C44.5718 19.2126 44.4985 20.0345 44.4985 20.9785V22.2358C44.4985 23.1554 44.5677 23.9652 44.7061 24.665C44.8444 25.3568 45.056 25.9427 45.3408 26.4229C45.6338 26.8949 46.0081 27.2529 46.4639 27.4971C46.9277 27.7331 47.4852 27.8511 48.1362 27.8511C48.9012 27.8511 49.5319 27.729 50.0283 27.4849C50.5247 27.2407 50.9032 26.8786 51.1636 26.3984C51.4321 25.9183 51.5908 25.3201 51.6396 24.604Z" fill="#A21419"/>
<path d="M79.8984 14.1719V16H73.8438V14.1719H79.8984ZM74.6094 4.625V16H72.2656V4.625H74.6094ZM79.1094 9.25781V11.0391H73.8438V9.25781H79.1094ZM79.8906 4.625V6.46094H73.8438V4.625H79.8906ZM90.5234 4.625V16H88.1797L83.6094 8.375V16H81.2656V4.625H83.6094L88.1875 12.2578V4.625H90.5234ZM97.3281 6.57031L94.2344 16H91.7422L95.9688 4.625H97.5547L97.3281 6.57031ZM99.8984 16L96.7969 6.57031L96.5469 4.625H98.1484L102.398 16H99.8984ZM99.7578 11.7656V13.6016H93.75V11.7656H99.7578ZM107.906 11.0078H104.984L104.969 9.39844H107.422C107.854 9.39844 108.208 9.34375 108.484 9.23438C108.76 9.11979 108.966 8.95573 109.102 8.74219C109.242 8.52344 109.312 8.25781 109.312 7.94531C109.312 7.59115 109.245 7.30469 109.109 7.08594C108.979 6.86719 108.773 6.70833 108.492 6.60938C108.216 6.51042 107.859 6.46094 107.422 6.46094H105.797V16H103.453V4.625H107.422C108.083 4.625 108.674 4.6875 109.195 4.8125C109.721 4.9375 110.167 5.1276 110.531 5.38281C110.896 5.63802 111.174 5.96094 111.367 6.35156C111.56 6.73698 111.656 7.19531 111.656 7.72656C111.656 8.19531 111.549 8.6276 111.336 9.02344C111.128 9.41927 110.797 9.74219 110.344 9.99219C109.896 10.2422 109.31 10.3802 108.586 10.4062L107.906 11.0078ZM107.805 16H104.344L105.258 14.1719H107.805C108.216 14.1719 108.552 14.1068 108.812 13.9766C109.073 13.8411 109.266 13.6589 109.391 13.4297C109.516 13.2005 109.578 12.9375 109.578 12.6406C109.578 12.3073 109.521 12.0182 109.406 11.7734C109.297 11.5286 109.12 11.3411 108.875 11.2109C108.63 11.0755 108.307 11.0078 107.906 11.0078H105.648L105.664 9.39844H108.477L109.016 10.0312C109.708 10.0208 110.266 10.1432 110.688 10.3984C111.115 10.6484 111.424 10.974 111.617 11.375C111.815 11.776 111.914 12.2057 111.914 12.6641C111.914 13.3932 111.755 14.0078 111.438 14.5078C111.12 15.0026 110.654 15.375 110.039 15.625C109.43 15.875 108.685 16 107.805 16ZM120.984 14.1719V16H115.258V14.1719H120.984ZM116.016 4.625V16H113.672V4.625H116.016ZM129.961 14.1719V16H123.906V14.1719H129.961ZM124.672 4.625V16H122.328V4.625H124.672ZM129.172 9.25781V11.0391H123.906V9.25781H129.172ZM129.953 4.625V6.46094H123.906V4.625H129.953ZM78.8594 34.2266H81.1953C81.1484 34.9922 80.9375 35.6719 80.5625 36.2656C80.1927 36.8594 79.6745 37.3229 79.0078 37.6562C78.3464 37.9896 77.5495 38.1562 76.6172 38.1562C75.888 38.1562 75.2344 38.0312 74.6562 37.7812C74.0781 37.526 73.5833 37.1615 73.1719 36.6875C72.7656 36.2135 72.4557 35.6406 72.2422 34.9688C72.0286 34.2969 71.9219 33.5443 71.9219 32.7109V31.9219C71.9219 31.0885 72.0312 30.3359 72.25 29.6641C72.474 28.987 72.7917 28.4115 73.2031 27.9375C73.6198 27.4635 74.1172 27.099 74.6953 26.8438C75.2734 26.5885 75.9193 26.4609 76.6328 26.4609C77.5807 26.4609 78.3802 26.6328 79.0312 26.9766C79.6875 27.3203 80.1953 27.7943 80.5547 28.3984C80.9193 29.0026 81.138 29.6901 81.2109 30.4609H78.8672C78.8411 30.0026 78.75 29.6146 78.5938 29.2969C78.4375 28.974 78.2005 28.7318 77.8828 28.5703C77.5703 28.4036 77.1536 28.3203 76.6328 28.3203C76.2422 28.3203 75.901 28.3932 75.6094 28.5391C75.3177 28.6849 75.0729 28.9062 74.875 29.2031C74.6771 29.5 74.5286 29.875 74.4297 30.3281C74.3359 30.776 74.2891 31.3021 74.2891 31.9062V32.7109C74.2891 33.2995 74.3333 33.8177 74.4219 34.2656C74.5104 34.7083 74.6458 35.0833 74.8281 35.3906C75.0156 35.6927 75.2552 35.9219 75.5469 36.0781C75.8438 36.2292 76.2005 36.3047 76.6172 36.3047C77.1068 36.3047 77.5104 36.2266 77.8281 36.0703C78.1458 35.9141 78.388 35.6823 78.5547 35.375C78.7266 35.0677 78.8281 34.6849 78.8594 34.2266ZM87.3594 28.5703L84.2656 38H81.7734L86 26.625H87.5859L87.3594 28.5703ZM89.9297 38L86.8281 28.5703L86.5781 26.625H88.1797L92.4297 38H89.9297ZM89.7891 33.7656V35.6016H83.7812V33.7656H89.7891ZM102.742 26.625V38H100.398L95.8281 30.375V38H93.4844V26.625H95.8281L100.406 34.2578V26.625H102.742ZM109.547 28.5703L106.453 38H103.961L108.188 26.625H109.773L109.547 28.5703ZM112.117 38L109.016 28.5703L108.766 26.625H110.367L114.617 38H112.117ZM111.977 33.7656V35.6016H105.969V33.7656H111.977ZM119.164 38H116.688L116.703 36.1719H119.164C119.779 36.1719 120.297 36.0339 120.719 35.7578C121.141 35.4766 121.458 35.0677 121.672 34.5312C121.891 33.9948 122 33.3464 122 32.5859V32.0312C122 31.4479 121.938 30.9349 121.812 30.4922C121.693 30.0495 121.513 29.6771 121.273 29.375C121.034 29.0729 120.74 28.8464 120.391 28.6953C120.042 28.5391 119.641 28.4609 119.188 28.4609H116.641V26.625H119.188C119.948 26.625 120.643 26.7552 121.273 27.0156C121.909 27.2708 122.458 27.638 122.922 28.1172C123.385 28.5964 123.742 29.1693 123.992 29.8359C124.247 30.4974 124.375 31.2344 124.375 32.0469V32.5859C124.375 33.3932 124.247 34.1302 123.992 34.7969C123.742 35.4635 123.385 36.0365 122.922 36.5156C122.464 36.9896 121.914 37.3568 121.273 37.6172C120.638 37.8724 119.935 38 119.164 38ZM118.016 26.625V38H115.672V26.625H118.016ZM130.531 28.5703L127.438 38H124.945L129.172 26.625H130.758L130.531 28.5703ZM133.102 38L130 28.5703L129.75 26.625H131.352L135.602 38H133.102ZM132.961 33.7656V35.6016H126.953V33.7656H132.961Z" fill="#A21419"/>
</g>
<defs>
<clipPath id="clip0_223_285">
<rect width="142" height="44" fill="white" transform="translate(0.25)"/>
</clipPath>
</defs>
</svg>
