<svg width="24" height="25" viewBox="0 0 24 25" fill="none" xmlns="http://www.w3.org/2000/svg">
<path d="M17.6 6.82005C16.8669 6.08147 15.9943 5.49602 15.033 5.09773C14.0716 4.69944 13.0406 4.49628 12 4.50005C10.6089 4.50141 9.24248 4.86825 8.03771 5.56383C6.83294 6.25941 5.83208 7.25932 5.13534 8.46341C4.4386 9.66751 4.07046 11.0336 4.06776 12.4247C4.06507 13.8159 4.42793 15.1833 5.12 16.3901L4 20.5001L8.2 19.4001C9.35975 20.0453 10.6629 20.3892 11.99 20.4001C14.0997 20.4002 16.124 19.5669 17.6222 18.0817C19.1205 16.5966 19.9715 14.5797 19.99 12.4701C19.983 11.4174 19.7682 10.3764 19.3581 9.40686C18.948 8.43731 18.3505 7.55825 17.6 6.82005ZM12 19.0301C10.8177 19.0309 9.65701 18.7131 8.64 18.1101L8.4 17.9601L5.91 18.6201L6.57 16.1901L6.41 15.9401C5.55925 14.5668 5.24174 12.9291 5.51762 11.3373C5.7935 9.74551 6.64361 8.31021 7.9069 7.30328C9.1702 6.29634 10.7589 5.78771 12.3721 5.87374C13.9853 5.95976 15.511 6.63447 16.66 7.77005C17.916 8.99824 18.635 10.6736 18.66 12.4301C18.6442 14.186 17.9355 15.8646 16.6882 17.1007C15.441 18.3367 13.756 19.0302 12 19.0301ZM15.61 14.0901C15.41 13.9901 14.44 13.5101 14.26 13.4501C14.08 13.3901 13.94 13.3501 13.81 13.5501C13.6144 13.8182 13.404 14.0752 13.18 14.3201C13.07 14.4601 12.95 14.4701 12.75 14.3201C11.6097 13.8695 10.6597 13.0395 10.06 11.9701C9.85 11.6201 10.26 11.6401 10.64 10.8901C10.6681 10.836 10.6827 10.776 10.6827 10.7151C10.6827 10.6542 10.6681 10.5942 10.64 10.5401C10.64 10.4401 10.19 9.46005 10.03 9.07005C9.87 8.68005 9.71 8.74005 9.58 8.73005H9.19C9.08895 8.7316 8.9894 8.75471 8.898 8.79782C8.8066 8.84093 8.72546 8.90306 8.66 8.98005C8.43562 9.19823 8.26061 9.46197 8.14676 9.75349C8.03291 10.045 7.98287 10.3576 8 10.6701C8.0627 11.4182 8.34443 12.1312 8.81 12.7201C9.6622 13.9959 10.8301 15.0294 12.2 15.7201C12.9185 16.1395 13.7535 16.3149 14.58 16.2201C14.8552 16.1655 15.1159 16.0536 15.345 15.8916C15.5742 15.7297 15.7667 15.5213 15.91 15.2801C16.0428 14.9857 16.0846 14.6584 16.03 14.3401C15.94 14.2401 15.81 14.1901 15.61 14.0901Z" fill="#771100"/>
</svg>
