<svg width="800" height="400" viewBox="0 0 800 400" fill="none" xmlns="http://www.w3.org/2000/svg">
  <path d="M135.5,227.5 L140,210 L156,201.5 L166.5,208.5 L173.5,208.5 L186,201.5 L200,210 L215.5,227.5 L227.5,227.5 L240,219 L250,227.5 L262.5,227.5 L275,219 L287.5,227.5 L300,219 L312.5,227.5 L325,219 L337.5,227.5 L350,219 L362.5,227.5 L375,219 L387.5,227.5 L400,219 L412.5,227.5 L425,219 L437.5,227.5 L450,219 L462.5,227.5 L475,219 L487.5,227.5 L500,219 L512.5,227.5 L525,219 L537.5,227.5 L550,219 L562.5,227.5 L575,219 L587.5,227.5 L600,219 L612.5,227.5 L625,219 L637.5,227.5 L650,219 L662.5,227.5" stroke="#555555" stroke-width="1.5"/>
  <path d="M150,150 C200,120 250,100 300,130 C350,160 400,150 450,130 C500,110 550,120 600,150 C650,180 700,170 750,140" stroke="#555555" stroke-width="1.5"/>
  <path d="M100,200 C150,170 200,150 250,180 C300,210 350,200 400,180 C450,160 500,170 550,200 C600,230 650,220 700,190" stroke="#555555" stroke-width="1.5"/>
  <path d="M50,250 C100,220 150,200 200,230 C250,260 300,250 350,230 C400,210 450,220 500,250 C550,280 600,270 650,240 C700,210 750,220 800,250" stroke="#555555" stroke-width="1.5"/>
  
  <!-- North America -->
  <path d="M50,100 C70,90 90,95 110,110 C130,125 150,130 170,120 C190,110 210,115 230,130 C250,145 270,140 290,120" stroke="#555555" stroke-width="1.5" fill="none"/>
  
  <!-- Europe -->
  <path d="M400,100 C420,90 440,95 460,110 C480,125 500,130 520,120" stroke="#555555" stroke-width="1.5" fill="none"/>
  
  <!-- Africa -->
  <path d="M400,180 C420,170 440,175 460,190 C480,205 500,210 520,200" stroke="#555555" stroke-width="1.5" fill="none"/>
  
  <!-- Asia -->
  <path d="M550,100 C570,90 590,95 610,110 C630,125 650,130 670,120 C690,110 710,115 730,130" stroke="#555555" stroke-width="1.5" fill="none"/>
  
  <!-- Australia -->
  <path d="M650,250 C670,240 690,245 710,260" stroke="#555555" stroke-width="1.5" fill="none"/>
</svg> 