<svg width="60" height="61" viewBox="0 0 60 61" fill="none" xmlns="http://www.w3.org/2000/svg">
<path d="M31.975 26.225L28.75 29.45L28.025 28.725C27.05 27.75 25.475 27.75 24.5 28.725C23.525 29.7 23.525 31.275 24.5 32.25L27 34.75C27.5 35.25 28.125 35.475 28.775 35.475C29.425 35.475 30.05 35.225 30.55 34.75L35.55 29.75C36.525 28.775 36.525 27.2 35.55 26.225C34.575 25.25 32.95 25.25 31.975 26.225Z" fill="#008000"/>
<path d="M38.625 25.55C39.1 26.35 39.925 26.8 40.8 26.8C41.225 26.8 41.65 26.7 42.05 26.475C43.25 25.775 43.65 24.25 42.975 23.05C42.475 22.175 41.875 21.325 41.175 20.575C40.25 19.55 38.675 19.45 37.65 20.375C36.625 21.3 36.525 22.875 37.45 23.9C37.875 24.4 38.275 24.95 38.625 25.55Z" fill="#008000"/>
<path d="M42.675 29.15C41.3 29.05 40.075 30.05 39.95 31.425C39.475 36.6 35.2 40.5 30 40.5C24.5 40.5 20 36.025 20 30.5C20 24.975 24.475 20.5 30 20.5C30.675 20.5 31.35 20.575 32 20.7C33.375 20.975 34.675 20.1 34.95 18.75C35.225 17.4 34.35 16.075 33 15.8C32.025 15.6 31 15.5 30 15.5C21.725 15.5 15 22.225 15 30.5C15 38.775 21.725 45.5 30 45.5C37.8 45.5 44.225 39.65 44.925 31.875C45.05 30.5 44.05 29.275 42.675 29.15Z" fill="#008000"/>
<path d="M51.75 17.95C50.7 16.125 47.875 15.6 46.4 14.125C44.925 12.65 44.4 9.82502 42.575 8.77502C41.85 8.35002 40.95 8.25002 40.025 8.25002C39.275 8.25002 38.5 8.30002 37.75 8.30002C37.15 8.30002 36.55 8.25002 36 8.12502C34 7.60002 32.15 5.40002 30 5.40002C27.85 5.40002 26 7.57502 24 8.12502C23.45 8.27502 22.85 8.30002 22.25 8.30002C21.5 8.30002 20.725 8.25002 19.975 8.25002C19.05 8.25002 18.175 8.35002 17.425 8.77502C15.625 9.82502 15.1 12.625 13.625 14.125C12.125 15.6 9.32502 16.125 8.25002 17.95C7.22502 19.75 8.17502 22.45 7.62502 24.5C7.10002 26.5 4.90002 28.35 4.90002 30.5C4.90002 32.65 7.07502 34.5 7.62502 36.5C8.17502 38.55 7.22502 41.25 8.27502 43.05C9.32502 44.875 12.15 45.4 13.625 46.875C15.1 48.35 15.625 51.175 17.45 52.225C18.175 52.65 19.075 52.75 20 52.75C20.75 52.75 21.525 52.7 22.275 52.7C22.875 52.7 23.475 52.75 24.025 52.875C26.025 53.4 27.875 55.6 30.025 55.6C32.175 55.6 34.025 53.425 36.025 52.875C36.575 52.725 37.175 52.7 37.775 52.7C38.525 52.7 39.3 52.75 40.05 52.75C40.975 52.75 41.85 52.65 42.6 52.225C44.425 51.175 44.95 48.35 46.425 46.875C47.9 45.4 50.725 44.875 51.775 43.05C52.825 41.25 51.875 38.55 52.425 36.5C52.95 34.5 55.15 32.65 55.15 30.5C55.15 28.35 52.975 26.5 52.425 24.5C51.825 22.45 52.775 19.75 51.75 17.95ZM49.425 31.325C48.775 32.35 47.975 33.625 47.55 35.2C47.125 36.825 47.175 38.35 47.225 39.575C47.225 39.825 47.25 40.175 47.25 40.45C47 40.6 46.7 40.75 46.45 40.875C45.375 41.45 44.025 42.15 42.825 43.325C41.65 44.5 40.95 45.85 40.375 46.95C40.25 47.2 40.1 47.5 39.95 47.75C39.65 47.75 39.35 47.725 39.075 47.725C38.625 47.7 38.175 47.7 37.725 47.7C36.55 47.7 35.6 47.825 34.7 48.05C33.125 48.475 31.85 49.275 30.825 49.925C30.575 50.075 30.25 50.275 30 50.45C29.725 50.3 29.425 50.1 29.175 49.925C28.15 49.275 26.875 48.475 25.3 48.05C24.4 47.8 23.425 47.7 22.25 47.7C21.8 47.7 21.35 47.725 20.9 47.725C20.6 47.725 20.3 47.75 20.025 47.75C19.875 47.5 19.725 47.2 19.6 46.95C19.025 45.875 18.325 44.525 17.15 43.325C15.975 42.15 14.625 41.45 13.525 40.875C13.275 40.75 12.975 40.6 12.725 40.45C12.725 40.175 12.75 39.825 12.75 39.575C12.8 38.35 12.85 36.825 12.425 35.2C12 33.625 11.2 32.35 10.55 31.325C10.4 31.075 10.2 30.75 10.025 30.5C10.175 30.225 10.375 29.925 10.55 29.675C11.2 28.65 12 27.375 12.425 25.8C12.85 24.175 12.8 22.65 12.75 21.425C12.75 21.175 12.725 20.825 12.725 20.55C12.975 20.4 13.275 20.25 13.525 20.125C14.6 19.55 15.95 18.85 17.15 17.675C18.325 16.5 19.025 15.15 19.6 14.05C19.725 13.8 19.875 13.5 20.025 13.25C20.325 13.25 20.625 13.275 20.9 13.275C21.375 13.275 21.825 13.3 22.25 13.3C23.425 13.3 24.375 13.175 25.275 12.95C26.85 12.525 28.125 11.725 29.15 11.075C29.4 10.925 29.725 10.725 29.975 10.55C30.25 10.7 30.55 10.9 30.8 11.075C31.825 11.725 33.1 12.525 34.675 12.95C35.575 13.2 36.55 13.3 37.725 13.3C38.175 13.3 38.625 13.275 39.075 13.275C39.375 13.275 39.675 13.25 39.95 13.25C40.1 13.5 40.25 13.8 40.375 14.05C40.95 15.125 41.65 16.475 42.825 17.675C44 18.85 45.35 19.55 46.45 20.125C46.7 20.25 47 20.4 47.25 20.55C47.25 20.825 47.225 21.175 47.225 21.425C47.175 22.65 47.125 24.175 47.55 25.8C47.975 27.375 48.775 28.65 49.425 29.675C49.575 29.925 49.775 30.25 49.95 30.5C49.8 30.775 49.6 31.075 49.425 31.325Z" fill="#008000"/>
</svg>
